<?xml version="1.0" encoding="UTF-8"?>
<svg version="1.1" xmlns="http://www.w3.org/2000/svg" width="650" height="520">
<path d="M0 0 C214.5 0 429 0 650 0 C650 171.6 650 343.2 650 520 C435.5 520 221 520 0 520 C0 348.4 0 176.8 0 0 Z " fill="#FEFEFE" transform="translate(0,0)"/>
<path d="M0 0 C4.03228541 3.08563776 6.18696979 5.70790208 8.0625 10.4375 C8.61360857 16.22414003 7.65141819 20.87628634 6.0625 26.4375 C6.990625 26.56125 7.91875 26.685 8.875 26.8125 C10.27101213 27.01963188 11.66681911 27.22814787 13.0625 27.4375 C13.95453125 27.55996094 14.8465625 27.68242188 15.765625 27.80859375 C23.12317078 28.94438975 27.45582095 30.77020051 32.75 36.1875 C34.73277611 38.97410426 35.4900809 40.49564601 36.4375 43.625 C37.23078208 46.02777348 37.62299939 47.13695157 39.73046875 48.578125 C41.85048038 49.50634124 41.85048038 49.50634124 45.0625 50.4375 C45.7225 50.7675 46.3825 51.0975 47.0625 51.4375 C47.15917969 50.69886719 47.25585938 49.96023437 47.35546875 49.19921875 C48.15635955 46.07087732 49.22586202 44.6292384 51.375 42.25 C51.96925781 41.57582031 52.56351563 40.90164062 53.17578125 40.20703125 C57.66051004 36.00085705 61.98067773 35.88339847 67.94921875 36 C73.78780853 36.82047937 77.92372661 39.67274415 81.50390625 44.30078125 C84.33976727 49.23142463 84.52746686 53.85789766 84.0625 59.4375 C84.80242187 59.53675781 85.54234375 59.63601562 86.3046875 59.73828125 C89.38842403 60.52013513 90.82607004 61.52749456 93.1875 63.625 C93.85007812 64.19605469 94.51265625 64.76710938 95.1953125 65.35546875 C99.39502474 70.03841148 100.44952719 74.17451958 100.3125 80.375 C100.29445313 81.6021875 100.27640625 82.829375 100.2578125 84.09375 C100.1061232 86.6906708 99.81207851 88.87668596 99.1875 91.375 C99.03866476 95.02146345 99.57521387 95.40148526 101.9375 98 C102.7728125 98.85464844 102.7728125 98.85464844 103.625 99.7265625 C105.64288144 102.12828009 105.91245862 104.36165174 106.0625 107.4375 C107.17625 107.355 108.29 107.2725 109.4375 107.1875 C116.53661449 107.22519441 122.79689045 109.89054035 128 114.6875 C130.35757961 117.2251725 131.51526547 119.31998474 132.5 122.625 C133.26761882 125.09843841 133.61817629 126.144605 135.8046875 127.5859375 C137.19529337 128.19990311 138.59268477 128.7987049 139.99609375 129.3828125 C144.36676888 131.61359187 147.02982042 135.65378072 149.4375 139.8125 C150.95314722 146.17821834 150.69847883 151.74825208 147.46875 157.515625 C143.89999547 162.39292286 139.42296107 165.75726946 134.0625 168.4375 C130.1025 168.7675 126.1425 169.0975 122.0625 169.4375 C121.4025 177.6875 120.7425 185.9375 120.0625 194.4375 C122.0425 194.4375 124.0225 194.4375 126.0625 194.4375 C128.765625 196.046875 128.765625 196.046875 131.3125 198.1875 C132.16328125 198.88359375 133.0140625 199.5796875 133.890625 200.296875 C137.76103526 204.1115959 138.2924513 206.97918168 138.35577393 212.4309082 C138.35486755 213.22682373 138.35396118 214.02273926 138.35302734 214.84277344 C138.35974457 215.68882141 138.36646179 216.53486938 138.37338257 217.40655518 C138.39237849 220.20338824 138.3962879 222.99998143 138.3984375 225.796875 C138.40486553 227.74497577 138.4115939 229.69307557 138.41860962 231.64117432 C138.43058723 235.72662594 138.43429006 239.81199299 138.43310547 243.89746094 C138.43290253 249.12065619 138.46017648 254.34330581 138.49464989 259.56637192 C138.51694254 263.59167955 138.52094224 267.61685651 138.51988602 271.64221954 C138.52223949 273.56705857 138.53104869 275.49190134 138.54655075 277.41667938 C138.5662537 280.11638479 138.56035548 282.81492227 138.54833984 285.51464844 C138.55957886 286.30246704 138.57081787 287.09028564 138.58239746 287.90197754 C138.51997018 293.4508863 137.24268792 297.83528502 134.0625 302.4375 C129.68293382 305.92327717 126.18461071 307.57254772 120.61328125 307.53515625 C119.76572266 307.53193359 118.91816406 307.52871094 118.04492188 307.52539062 C117.16384766 307.51701172 116.28277344 307.50863281 115.375 307.5 C114.48232422 307.49548828 113.58964844 307.49097656 112.66992188 307.48632812 C110.46738013 307.47454983 108.26497401 307.45810164 106.0625 307.4375 C106.01786621 308.35104248 105.97323242 309.26458496 105.92724609 310.20581055 C105.29936538 321.61608984 104.05755042 332.90773422 102.6875 344.25 C102.23268429 348.05318484 101.7801577 351.85663974 101.328125 355.66015625 C101.16194168 357.05323502 101.16194168 357.05323502 100.99240112 358.47445679 C100.33988113 363.97752792 99.72937014 369.48261888 99.171875 374.99609375 C99.04474121 376.23190186 98.91760742 377.46770996 98.78662109 378.7409668 C98.56168129 380.96157886 98.34520128 383.18307232 98.13916016 385.40551758 C97.5676063 390.97333575 96.76903139 395.49973053 94.0625 400.4375 C80.96904664 409.16646891 55.48864882 408.48338301 40.0234375 409.2265625 C37.14996528 409.36645723 37.14996528 409.36645723 34.72192383 409.91723633 C-16.03379696 419.84658922 -74.15700527 412.50190177 -124.9375 405.4375 C-125.92556641 405.30875488 -126.91363281 405.18000977 -127.93164062 405.04736328 C-130.39648877 404.72348543 -132.85431113 404.37059757 -135.3125 404 C-137.18035156 403.72349609 -137.18035156 403.72349609 -139.0859375 403.44140625 C-142.77059533 402.14420479 -143.24382061 400.89986117 -144.9375 397.4375 C-145.56591797 394.49121094 -145.56591797 394.49121094 -145.9296875 391.171875 C-146.07494873 389.90915771 -146.22020996 388.64644043 -146.36987305 387.34545898 C-146.5175734 385.95948949 -146.66511088 384.57350263 -146.8125 383.1875 C-146.97504774 381.73952151 -147.13889656 380.29168857 -147.30395508 378.84399414 C-147.56774916 376.52851002 -147.83053304 374.21295084 -148.08900452 371.89686584 C-148.76838544 365.82476774 -149.50744924 359.76145076 -150.26953125 353.69921875 C-150.49691489 351.88118581 -150.72429121 350.06315196 -150.95166016 348.24511719 C-151.28377473 345.59191135 -151.61688957 342.93885669 -151.95379639 340.28625488 C-153.34008083 329.34090545 -154.3996 318.46015053 -154.9375 307.4375 C-155.50670166 307.46368408 -156.07590332 307.48986816 -156.66235352 307.5168457 C-159.27461455 307.62163326 -161.88643238 307.68607626 -164.5 307.75 C-165.39525391 307.79189453 -166.29050781 307.83378906 -167.21289062 307.87695312 C-172.46999923 307.97323717 -176.30616135 307.6323045 -180.36781979 304.08257961 C-185.39773023 298.81105803 -186.52821803 292.78340524 -186.43920898 285.74584961 C-186.44461197 284.91711838 -186.45001495 284.08838715 -186.45558167 283.23454285 C-186.46799898 280.51926991 -186.45162658 277.80507184 -186.43359375 275.08984375 C-186.43374889 273.18990524 -186.43524029 271.28996641 -186.43800354 269.39002991 C-186.43938435 265.41832398 -186.42688166 261.44698056 -186.40405273 257.4753418 C-186.37564977 252.3956908 -186.37841501 247.31664076 -186.39114285 242.23694515 C-186.39811153 238.31717331 -186.39029746 234.39753934 -186.37788582 230.47778511 C-186.37338426 228.60517468 -186.37302315 226.73254939 -186.37695122 224.85993767 C-186.37987564 222.23957048 -186.36329879 219.62001963 -186.34155273 216.99975586 C-186.34605438 216.23332764 -186.35055603 215.46689941 -186.35519409 214.67724609 C-186.26569852 208.15635403 -184.81794603 203.49703613 -180.3125 198.5625 C-177.05782718 196.51326156 -175.87274495 196.11683791 -172.2265625 195.8046875 C-171.0192749 195.69423096 -171.0192749 195.69423096 -169.78759766 195.58154297 C-169.17706543 195.53400879 -168.5665332 195.48647461 -167.9375 195.4375 C-168.1540625 194.14714844 -168.370625 192.85679687 -168.59375 191.52734375 C-168.87529102 189.80994352 -169.15652475 188.09249289 -169.4375 186.375 C-169.58058594 185.52744141 -169.72367188 184.67988281 -169.87109375 183.80664062 C-170.65950421 178.94477611 -171.09787074 174.36221814 -170.9375 169.4375 C-172.0925 169.499375 -173.2475 169.56125 -174.4375 169.625 C-180.60734005 169.60319845 -185.1131137 167.66545232 -190.1875 164.25 C-195.44013868 158.87798317 -197.17728614 154.42987583 -197.4375 146.875 C-197.19821854 140.19055657 -196.04500671 136.60391679 -191.2890625 131.7578125 C-186.05869521 126.98424585 -181.8076507 125.15463955 -174.625 125.3125 C-173.55636719 125.33054687 -172.48773438 125.34859375 -171.38671875 125.3671875 C-170.57847656 125.39039063 -169.77023438 125.41359375 -168.9375 125.4375 C-168.69 124.674375 -168.4425 123.91125 -168.1875 123.125 C-166.9375 120.4375 -166.9375 120.4375 -164.84375 119.07421875 C-162.57591584 117.49094224 -162.57591584 117.49094224 -162.46875 114.14453125 C-162.4584375 112.85933594 -162.448125 111.57414062 -162.4375 110.25 C-162.12380903 101.57018115 -160.49520036 96.58780383 -154.125 90.625 C-147.40740208 85.23615771 -141.71606614 83.89871604 -133.18359375 84.06640625 C-128.5919605 84.59132221 -124.91164982 86.1372169 -120.9375 88.4375 C-120.96070313 87.85742188 -120.98390625 87.27734375 -121.0078125 86.6796875 C-121.12169773 81.75008385 -120.57404214 78.1289208 -118.9375 73.4375 C-119.23653005 72.09605678 -119.57443667 70.76304665 -119.9375 69.4375 C-120.84922563 61.89622661 -119.5890144 56.488056 -114.9375 50.4375 C-110.90165418 45.69624846 -106.30056874 44.99866683 -100.3125 44.375 C-99.04148437 44.28089844 -97.77046875 44.18679687 -96.4609375 44.08984375 C-92.46699248 43.3503883 -90.98039149 42.02071001 -87.9375 39.4375 C-85.25390625 38.671875 -85.25390625 38.671875 -82.5 38.1875 C-77.07460508 36.8709375 -75.4096032 35.03491627 -72.5390625 30.41015625 C-70.53657371 27.94367616 -68.66772247 27.20660857 -65.75 26 C-62.09316313 24.43401184 -62.09316313 24.43401184 -59.8046875 21.34375 C-59.35367748 19.78854302 -58.93777634 18.22269903 -58.55859375 16.6484375 C-57.18673383 11.76496132 -53.68678792 8.71152308 -49.4375 6.125 C-42.88567892 2.96608626 -36.35354436 2.61293757 -29.3125 4.3125 C-26.04572885 4.79007223 -26.04572885 4.79007223 -24.30859375 3.203125 C-22.7390887 1.5952022 -22.7390887 1.5952022 -21.39453125 -0.1171875 C-16.24334699 -5.22694132 -5.51965049 -3.43607382 0 0 Z " fill="#080706" transform="translate(348.9375,55.5625)"/>
<path d="M0 0 C1.03110804 -0.00782324 2.06221609 -0.01564648 3.12456983 -0.02370679 C4.82911395 -0.01366855 4.82911395 -0.01366855 6.5680933 -0.00342751 C7.77248226 -0.00810748 8.97687122 -0.01278745 10.21775681 -0.01760924 C13.56689806 -0.02752836 16.915537 -0.02392696 20.26464808 -0.01465058 C23.87413041 -0.00788031 27.48356791 -0.01833129 31.09304142 -0.02659035 C38.1666573 -0.03995197 45.24017786 -0.03703905 52.31379753 -0.02835242 C58.06169803 -0.02158528 63.80957175 -0.02065495 69.55747509 -0.02392387 C70.7832304 -0.02461342 70.7832304 -0.02461342 72.03374844 -0.0253169 C73.69367592 -0.02627605 75.35360339 -0.02724869 77.01353086 -0.02823468 C92.59044203 -0.03679582 108.1673003 -0.02694337 123.7442028 -0.01083358 C137.11627668 0.00256776 150.48827242 0.00024445 163.86034489 -0.01358986 C179.37885658 -0.02963722 194.89732185 -0.03596913 210.41584069 -0.02675307 C212.07006712 -0.0257974 213.72429356 -0.02485428 215.37852001 -0.02392387 C216.19248473 -0.02346105 217.00644945 -0.02299822 217.84507976 -0.02252137 C223.58702574 -0.01992876 229.32894233 -0.02430836 235.07088375 -0.03136253 C242.06713601 -0.03976849 249.06328727 -0.03751663 256.05952793 -0.0215203 C259.63064576 -0.01362493 263.20159509 -0.01056733 266.77271175 -0.02046776 C270.6401482 -0.03102766 274.50730747 -0.01843597 278.37473392 -0.00342751 C279.50886595 -0.01011967 280.64299797 -0.01681184 281.81149763 -0.02370679 C282.84521342 -0.01588355 283.87892921 -0.00806031 284.94396973 0 C286.28346205 0.00073059 286.28346205 0.00073059 287.65001482 0.00147593 C290.57043298 0.46196494 291.94092167 1.30719115 294.03490543 3.37752342 C294.43758898 6.14026304 294.5819783 8.50879631 294.55248356 11.27376366 C294.56299747 12.47910255 294.56299747 12.47910255 294.57372379 13.70879173 C294.59134607 16.36825055 294.57966541 19.0266473 294.56615543 21.68611717 C294.56884941 23.53312955 294.57273104 25.38014054 294.57775211 27.22714806 C294.5836531 31.10008292 294.57506595 34.97264898 294.55638981 38.845541 C294.53361577 43.81028179 294.54670959 48.77415694 294.57067966 53.73886585 C294.58513508 57.5538847 294.58053257 61.36869842 294.5701685 65.18372345 C294.56749967 67.01416247 294.57077645 68.8446201 294.58008671 70.67503738 C294.59024645 73.23448926 294.57475963 75.79254106 294.55248356 78.35188866 C294.56058048 79.10890572 294.56867741 79.86592278 294.57701969 80.64587975 C294.5248262 83.88290135 294.22676574 86.06133228 292.53539371 88.8487606 C288.94584356 91.04336029 285.5904322 90.92010411 281.50951481 90.86336327 C280.65038486 90.86715996 279.79125492 90.87095665 278.90609074 90.87486839 C276.06324164 90.88228163 273.22141397 90.86086701 270.37865543 90.83846092 C268.39529891 90.8360751 266.41194009 90.83517147 264.42858219 90.83568382 C260.26563762 90.83255361 256.10303688 90.8159818 251.94017887 90.78914452 C246.63231125 90.7553416 241.32482454 90.747511 236.01686192 90.74903488 C231.91589129 90.74848766 227.81500218 90.73746155 223.71405888 90.723032 C221.75905823 90.71671142 219.80404842 90.71273633 217.84903812 90.71124458 C188.50041076 90.66437327 188.50041076 90.66437327 178.87865543 81.40071678 C177.75926444 80.26096886 176.6448888 79.11627902 175.53490543 77.96736717 C174.30585517 76.71790371 173.07668487 75.4685583 171.84740543 74.2193203 C169.9359692 72.26437529 168.02710176 70.30699977 166.12084293 68.34700584 C164.26538532 66.44310971 162.4006785 64.54864755 160.53490543 62.65486717 C159.97222965 62.07043343 159.40955387 61.48599968 158.82982731 60.88385582 C154.92906947 56.93489787 151.1479402 53.91159894 145.50756168 52.94392967 C144.71221012 52.94264061 143.91685856 52.94135155 143.09740543 52.94002342 C142.304632 52.92068748 141.51185856 52.90135155 140.69506168 52.88142967 C133.82075784 54.16342173 129.16421573 58.86821376 124.54271793 63.75252342 C123.33073865 64.99756853 122.11849074 66.24235219 120.90599918 67.48689842 C119.03003568 69.4310342 117.1584184 71.37908004 115.29222965 73.33260155 C113.47022325 75.23374221 111.63252645 77.11862759 109.79271793 79.00252342 C109.24866306 79.58179588 108.70460819 80.16106834 108.14406681 80.75789452 C98.66651879 90.41290342 87.63132663 90.38238505 74.88500309 90.55452538 C71.23968225 90.5864364 67.59439994 90.60265942 63.94896793 90.61580467 C62.5139147 90.62191796 62.5139147 90.62191796 61.04987049 90.62815475 C56.00077635 90.64889379 50.95170853 90.66325625 45.90258121 90.67268944 C40.69040979 90.68382263 35.47865719 90.71833557 30.26663494 90.75786114 C26.25009697 90.78395058 22.23366104 90.79237365 18.21704578 90.79597092 C16.29447264 90.80084451 14.37190429 90.81248043 12.44941425 90.83100891 C9.76874252 90.85527191 7.08918773 90.85446097 4.40844059 90.84749413 C3.61566715 90.86030418 2.82289371 90.87311424 2.00609684 90.88631248 C-1.33085929 90.85463587 -3.58754774 90.60898715 -6.4570837 88.84975243 C-8.56023773 85.4018473 -8.5168603 82.27141066 -8.46680355 78.35188866 C-8.47220654 77.54657707 -8.47760952 76.74126549 -8.48317623 75.91155052 C-8.4956721 73.2526976 -8.47916881 70.59492558 -8.46118832 67.93611717 C-8.46134327 66.08813991 -8.46283164 64.24016232 -8.46559811 62.39218712 C-8.46698243 58.52102336 -8.45441733 54.65022997 -8.4316473 50.77913475 C-8.40324267 45.81331268 -8.40600491 40.84810512 -8.41873741 35.88223743 C-8.42568647 32.06727395 -8.41791451 28.25245293 -8.40548038 24.43750763 C-8.40095975 22.60624869 -8.40063442 20.77497449 -8.40454578 18.94371414 C-8.40745095 16.386744 -8.39098563 13.83062618 -8.3691473 11.27376366 C-8.37364895 10.51472237 -8.3781506 9.75568108 -8.38278866 8.97363853 C-8.31007836 3.85900349 -8.31007836 3.85900349 -6.75118297 1.68331563 C-4.38369395 -0.04753303 -2.92084711 0.00159338 0 0 Z " fill="#FCFCFC" transform="translate(181.96509456634521,261.6224765777588)"/>
<path d="M0 0 C7.24295775 3.48591549 7.24295775 3.48591549 9 7 C9.12148305 8.62165752 9.17543652 10.24884327 9.1875 11.875 C9.20167969 12.73867187 9.21585938 13.60234375 9.23046875 14.4921875 C8.98650113 17.14688602 8.22220444 18.66803393 7 21 C7.27726804 25.34386596 8.08509383 28.72073056 11 32 C13.22307679 32.68570345 15.42936086 33.08336801 17.71875 33.4921875 C22.52576081 34.56224128 25.27240084 37.13836942 28.375 40.8125 C30.49542257 44.69853339 29.94631881 48.23471001 29.6875 52.5625 C29.35294264 57.89945363 29.35294264 57.89945363 31.953125 62.26953125 C34.25055818 63.75419326 36.48841268 64.92699672 39 66 C39.33 66.33 39.66 66.66 40 67 C42.3295947 67.50241322 42.3295947 67.50241322 45 67 C46.70993434 65.3777546 48.37347684 63.70586575 50 62 C54.90295407 58.76850754 59.28420862 58.0473681 65 59 C71.46568723 61.07825661 75.86086119 63.89907415 79.10546875 69.9296875 C80.3971392 72.91914312 81.27242524 75.82512831 82 79 C85.14518361 79.7862959 87.66170529 79.97899348 90.9375 79.875 C96.1051804 79.81660813 99.4522084 81.69659655 103.375 85 C105 87 105 87 105 90 C100.06111806 90.64848157 95.12145564 91.24708362 90.16748047 91.76855469 C88.30901083 91.96700357 86.45300214 92.1882684 84.59765625 92.4140625 C81.84049634 92.61829657 79.67018486 92.72297424 77 92 C75.19512058 90.14229484 74.18145587 88.36557089 73.046875 86.04296875 C71.0549375 82.15571758 68.0266042 80.3422014 64 79 C60.01825591 78.86945101 56.74711774 78.82069174 52.875 79.75 C48.8419048 80.10070393 47.18114541 78.35128139 44 76 C39.54066516 74.21626606 34.26062055 74.1631738 29.7734375 75.82421875 C26.75314471 77.30141649 24.38973422 78.61026578 22 81 C21.83322718 84.58343976 21.83322718 84.58343976 22 88 C26.1187953 86.95722818 26.1187953 86.95722818 29.375 84.4375 C31.64260753 82.43153949 33.98570426 82.13835282 36.94140625 81.8671875 C41.41823734 82.15601531 44.23459822 85.16706277 47.125 88.3125 C48.053125 89.1478125 48.053125 89.1478125 49 90 C52.07435378 89.81367553 53.37371096 88.75085936 56 87 C58.15625 86.91796875 58.15625 86.91796875 60.5 87.1875 C61.2734375 87.26355469 62.046875 87.33960938 62.84375 87.41796875 C65.37929713 88.10238274 66.40397808 88.93847169 68 91 C68 91.66 68 92.32 68 93 C64.42565622 94.19144793 60.95903077 94.45020988 57.23046875 94.75390625 C56.44932709 94.81921539 55.66818542 94.88452454 54.8633728 94.95181274 C52.30521451 95.16173765 49.7465128 95.3632744 47.1875 95.5625 C45.8861763 95.6652977 45.8861763 95.6652977 44.55856323 95.77017212 C28.33949338 97.03045221 12.26623151 97.36271185 -4 97 C-3.27246094 93.18652344 -3.27246094 93.18652344 -0.8203125 91.5078125 C0.06914062 91.05148438 0.95859375 90.59515625 1.875 90.125 C4.96064021 88.34414479 6.86612818 87.16537107 9.125 84.375 C10.61538592 78.62636858 11.66089392 72.25329736 8.86328125 66.7734375 C5.86056409 63.06929822 2.54769021 60.54621467 -2 59 C-5.63087653 58.62044092 -8.99565856 58.67358903 -12.5 59.8125 C-15.58776617 60.04408246 -16.11856892 59.34902867 -18.5625 57.5625 C-23.77565103 54.02782563 -28.89963745 54.09375632 -35 55 C-40.86480706 56.97242169 -44.47824923 61.03258601 -47.25 66.4375 C-48.12114427 69.41390961 -48.210409 71.91400138 -48 75 C-46.93354885 76.29633621 -46.93354885 76.29633621 -44.4375 76.0625 C-43.633125 76.041875 -42.82875 76.02125 -42 76 C-41.82984375 75.39671875 -41.6596875 74.7934375 -41.484375 74.171875 C-38.83032339 65.41915162 -38.83032339 65.41915162 -35 63 C-31.10211957 61.78143932 -27.67514369 61.21060019 -23.89453125 62.9921875 C-21.3324117 64.77774711 -19.4093199 66.18136021 -18 69 C-14.28400809 69.20086443 -13.22791555 69.1519437 -10 67 C-5.01114768 66.53806923 -2.01119752 66.93261366 2 70 C3.75579061 73.51158123 2.9514506 77.28669974 2 81 C-0.81399869 84.3105867 -2.5422149 84.90994391 -6.8125 85.75 C-7.864375 85.8325 -8.91625 85.915 -10 86 C-10.061875 86.7425 -10.12375 87.485 -10.1875 88.25 C-11.2680721 91.90732095 -12.85211997 92.92526089 -16 95 C-17.64797236 95.71162443 -19.31165408 96.39031953 -21 97 C-21.33 97.33 -21.66 97.66 -22 98 C-23.86463965 98.10459973 -25.73327093 98.13855848 -27.60083008 98.14526367 C-29.41018288 98.15468239 -29.41018288 98.15468239 -31.25608826 98.16429138 C-32.5939023 98.16579829 -33.9317167 98.16701563 -35.26953125 98.16796875 C-36.65125084 98.17203609 -38.03296981 98.1763175 -39.41468811 98.18080139 C-43.8806385 98.19248215 -48.34653927 98.19097736 -52.8125 98.1875 C-53.56478127 98.18723312 -54.31706253 98.18696625 -55.0921402 98.18669128 C-73.35912679 98.17848726 -91.62677782 98.16768963 -109.875 97.25 C-110.96562241 97.20400162 -110.96562241 97.20400162 -112.07827759 97.15707397 C-114.07147099 97.06869135 -116.06322592 96.94941888 -118.0546875 96.828125 C-119.12187012 96.7652832 -120.18905273 96.70244141 -121.28857422 96.63769531 C-124.61654838 95.85499511 -125.86383649 94.61915977 -128 92 C-129.42662219 89.14675563 -129.31033868 87.16545451 -129 84 C-127.5 81.25 -127.5 81.25 -125 79 C-123.05859375 78.45703125 -123.05859375 78.45703125 -120.9375 78.0625 C-118.84440564 77.71666218 -118.84440564 77.71666218 -117 77 C-115.18319884 74.11650072 -115.18319884 74.11650072 -114 71 C-112.125 69.0625 -112.125 69.0625 -110 68 C-106.31221342 68 -105.06446429 68.94432629 -102.25 71.375 C-100 74 -100 74 -99 77 C-97.03154957 77.87914855 -97.03154957 77.87914855 -94.6875 78.4375 C-90.80544036 79.64525189 -88.35426858 80.5156825 -86 84 C-85.1157016 86.66311829 -84.55270865 89.23645675 -84 92 C-82.35 92.33 -80.7 92.66 -79 93 C-77.41456493 89.82912985 -77.65934563 87.52009516 -78 84 C-80.40743739 78.42761259 -83.62735142 74.91018465 -89 72 C-90.3303125 71.5359375 -90.3303125 71.5359375 -91.6875 71.0625 C-94 70 -94 70 -95.3125 67.625 C-97.74627561 63.83912684 -100.80352329 62.44011931 -105 61 C-110.25070862 60.36629379 -113.57177479 61.11202704 -118 64 C-119.20923382 65.4956313 -120.41721147 66.99296232 -121.58203125 68.5234375 C-123.26364817 70.27454272 -124.85887642 71.06048262 -127.0625 72.0625 C-130.75942543 73.74355477 -132.80436645 75.48698633 -135 79 C-136.15106822 82.42291338 -136.10152351 85.65983686 -136.0625 89.25 C-136.05347656 90.32765625 -136.04445312 91.4053125 -136.03515625 92.515625 C-136.02355469 93.33546875 -136.01195312 94.1553125 -136 95 C-145.80621574 94.49981718 -155.59095764 93.83068423 -165.375 93 C-166.37926025 92.9170166 -167.38352051 92.8340332 -168.41821289 92.74853516 C-169.83154907 92.62551025 -169.83154907 92.62551025 -171.2734375 92.5 C-172.11310059 92.4278125 -172.95276367 92.355625 -173.81787109 92.28125 C-176 92 -176 92 -179 91 C-177.60840337 87.52100842 -176.36748512 86.51947499 -173 85 C-173.04640625 84.01 -173.0928125 83.02 -173.140625 82 C-173.61137344 67.75309612 -173.61137344 67.75309612 -169 62 C-163.46343588 56.85890475 -159.61035368 56.66617208 -152.21484375 56.70703125 C-146.91615204 57.18990109 -144.69671517 59.30328483 -141 63 C-137.6011022 62.91055532 -136.29906655 62.29741728 -133.875 59.88671875 C-131.57542418 56.34633014 -131.47286081 54.06522179 -131.375 49.875 C-131.19404631 43.29106946 -131.19404631 43.29106946 -129 40 C-129.30185427 37.04182816 -129.66718829 34.66562342 -131 32 C-131.75411894 27.28675664 -131.08216269 24.39197887 -128.375 20.5625 C-125.7347385 17.72746511 -124.49872804 17.04804261 -120.59375 16.671875 C-118.12366843 16.76528145 -115.6545333 16.88877917 -113.1875 17.04296875 C-109.76887909 17.31266189 -109.76887909 17.31266189 -106.875 14.625 C-106.25625 13.75875 -105.6375 12.8925 -105 12 C-101.45001225 9.51500858 -98.25281959 9.56750987 -94 10 C-90.06741526 11.60950545 -87.39517194 13.40724209 -85 17 C-84.76953125 18.98046875 -84.76953125 18.98046875 -84.8125 21.1875 C-84.82152344 21.98027344 -84.83054687 22.77304688 -84.83984375 23.58984375 C-84.99281432 25.89186425 -85.40043879 27.99690307 -85.875 30.25 C-85.91625 31.4875 -85.9575 32.725 -86 34 C-83.27847764 36.89299854 -83.27847764 36.89299854 -80 39 C-79.34 39.99 -78.68 40.98 -78 42 C-74.6365731 41.97350778 -74.6365731 41.97350778 -71 41 C-68.80132223 38.20212693 -68.80132223 38.20212693 -67 35 C-63.90031524 31.90031524 -61.54100908 30.86928161 -57.375 29.9375 C-54.97974255 29.33425722 -54.97974255 29.33425722 -53 28 C-51.82483139 25.2904603 -51.30161506 22.69484477 -50.73046875 19.80078125 C-49.63581991 15.60365176 -47.38486484 12.67513511 -44 10 C-38.79726581 7.43745928 -33.69555326 7.27023103 -28 8 C-24.625 10.0625 -24.625 10.0625 -22 12 C-19.36493357 12.49014192 -19.36493357 12.49014192 -17 11 C-15.6150588 9.04632119 -14.43886238 7.01905344 -13.2421875 4.9453125 C-10.01252946 -0.11245386 -5.65489294 -0.76676514 0 0 Z " fill="#FACD4E" transform="translate(368,92)"/>
<path d="M0 0 C6.62067873 0.71293455 13.23265751 1.1527732 19.88232422 1.48730469 C23.20263672 1.73339844 23.20263672 1.73339844 25.30517578 2.20166016 C57.5634259 8.12165247 93.06556857 6.04011858 125.7662735 6.04481125 C128.52434825 6.04587783 131.28239697 6.05056079 134.04046631 6.05593872 C167.80744748 6.10572921 201.5649039 5.11256973 235.20043945 1.98339844 C237.99400182 1.72374446 240.7885633 1.47782676 243.58349609 1.23339844 C252.78451021 0.41505172 261.93997448 -0.54167992 271.0847168 -1.85058594 C283.1455892 -3.45983553 283.1455892 -3.45983553 287.39794922 -0.99316406 C291.32200031 2.26363947 293.05761615 4.28319278 293.57763672 9.48339844 C293.53636315 12.72632194 293.02422793 14.55137326 291.01513672 17.10839844 C285.76958894 22.00424303 280.01503635 22.35387972 273.14013672 23.17089844 C272.10066895 23.29650146 271.06120117 23.42210449 269.99023438 23.55151367 C218.10454943 29.58621564 165.51029883 31.35180406 113.30737305 30.75622559 C111.08953953 30.73217183 108.87169637 30.71364119 106.65380859 30.6953125 C67.18002859 30.33281364 27.64139759 27.94297427 -11.60986328 23.73339844 C-12.32070068 23.66180511 -13.03153809 23.59021179 -13.76391602 23.51644897 C-26.90158314 22.1661801 -26.90158314 22.1661801 -31.79736328 17.73339844 C-34.12093834 14.86765587 -34.75165025 13.00767665 -35.35986328 9.35839844 C-34.61575307 4.56302155 -32.43800577 1.8691343 -28.79736328 -1.26660156 C-20.39991326 -4.06575157 -8.78176586 -0.96650759 0 0 Z " fill="#E0E0E0" transform="translate(195.79736328125,193.2666015625)"/>
<path d="M0 0 C0.68009125 -0.0065712 1.3601825 -0.0131424 2.06088257 -0.01991272 C4.31117877 -0.03961812 6.5614082 -0.05130401 8.81176758 -0.0612793 C9.96763083 -0.06739259 9.96763083 -0.06739259 11.14684486 -0.07362938 C15.22793941 -0.09448147 19.30900045 -0.10878514 23.39013672 -0.11816406 C27.59214219 -0.12920811 31.79361513 -0.16358674 35.99543285 -0.20333576 C39.23752278 -0.22956727 42.47948727 -0.2378618 45.72167397 -0.24144554 C47.26973364 -0.2462971 48.81778826 -0.25787009 50.36574364 -0.27648354 C67.32658292 -0.46770234 67.32658292 -0.46770234 73.77140808 5.5891571 C78.6248746 10.98354654 79.58278007 15.98989157 79.60473633 23.0402832 C79.61472153 24.16650337 79.61472153 24.16650337 79.62490845 25.31547546 C79.63500255 26.89974531 79.63972647 28.4840574 79.6394043 30.06835938 C79.64376676 32.47183674 79.68008734 34.87345967 79.71801758 37.27661133 C79.79486245 47.78287198 78.79787179 55.19162154 71.26879883 63.17700195 C67.14223342 66.23464248 64.08922183 66.55967731 59.00341797 66.58105469 C58.29056137 66.58791794 57.57770477 66.59478119 56.84324646 66.60185242 C54.49661097 66.62009109 52.15064595 66.61628729 49.80395508 66.6105957 C48.16637455 66.61515903 46.52879593 66.62046505 44.89122009 66.6264801 C41.46239431 66.63540549 38.03380152 66.6329948 34.60498047 66.62304688 C30.21892725 66.61155947 25.83367941 66.63176749 21.44773197 66.66096401 C18.06671573 66.6793431 14.68589186 66.67903016 11.30483818 66.67332649 C9.68816435 66.67317348 8.07147731 66.67920151 6.45485115 66.69161797 C4.19058386 66.70655881 1.92779638 66.69583017 -0.33642578 66.67871094 C-1.62262314 66.67854477 -2.9088205 66.6783786 -4.23399353 66.6782074 C-8.99756251 65.99551224 -12.10054855 63.94618089 -15.34057617 60.4309082 C-15.71698242 59.87274414 -16.09338867 59.31458008 -16.48120117 58.73950195 C-16.86791992 58.18391602 -17.25463867 57.62833008 -17.65307617 57.0559082 C-21.49352589 50.36295054 -21.06881544 43.68894856 -21.046875 36.19506836 C-21.04373008 33.94766033 -21.06714367 31.70158985 -21.0925293 29.4543457 C-21.17195259 12.39469724 -21.17195259 12.39469724 -15.79370117 5.80200195 C-14.77276367 4.99762695 -14.77276367 4.99762695 -13.73120117 4.17700195 C-13.05057617 3.62012695 -12.36995117 3.06325195 -11.66870117 2.48950195 C-7.86288882 -0.088629 -4.47343166 0.03578775 0 0 Z " fill="#FE7B7B" transform="translate(385.731201171875,273.822998046875)"/>
<path d="M0 0 C0.67033768 -0.0049649 1.34067535 -0.00992981 2.03132629 -0.01504517 C4.24916616 -0.02964893 6.4669344 -0.0364673 8.68481445 -0.04199219 C10.23077902 -0.047747 11.77674358 -0.05350469 13.32270813 -0.05926514 C16.56670463 -0.06977135 19.81067638 -0.07561587 23.0546875 -0.07910156 C27.19606357 -0.08457247 31.33710858 -0.10857173 35.47838116 -0.13707352 C38.67414783 -0.15577335 41.86983611 -0.16090948 45.06565285 -0.16243744 C46.5913657 -0.16545012 48.11707763 -0.17343153 49.64273643 -0.18662262 C67.07948316 -0.32656891 67.07948316 -0.32656891 73.3840332 4.80957031 C74.05305664 5.66421875 74.05305664 5.66421875 74.7355957 6.53613281 C75.42782227 7.38304687 75.42782227 7.38304687 76.1340332 8.24707031 C79.23144323 13.08060825 79.69046354 17.56985067 79.73168945 23.20800781 C79.74071793 23.97864563 79.7497464 24.74928345 79.75904846 25.54327393 C79.77351515 27.17041158 79.78242878 28.79760694 79.78613281 30.42480469 C79.79799411 32.89001906 79.84717905 35.3526986 79.89770508 37.81738281 C80.05826824 53.44893534 80.05826824 53.44893534 74.3605957 60.16113281 C69.21332474 65.05731739 65.37229418 66.40920482 58.30053711 66.45166016 C57.24610161 66.46173599 57.24610161 66.46173599 56.17036438 66.47201538 C53.85089004 66.49098354 51.53170524 66.49491895 49.2121582 66.49707031 C47.59556968 66.50349916 45.97898233 66.51022759 44.36239624 66.51724243 C40.97472436 66.52921229 37.58715443 66.53292357 34.19946289 66.53173828 C29.86610128 66.53153513 25.53339577 66.55883428 21.20018959 66.5932827 C17.86122659 66.61555973 14.52242127 66.61957558 11.18339157 66.61851883 C9.58624384 66.62087369 7.98909169 66.62969085 6.39201736 66.64518356 C4.15403023 66.66486056 1.917455 66.65900026 -0.32055664 66.64697266 C-2.22772964 66.65124771 -2.22772964 66.65124771 -4.1734314 66.65560913 C-8.95061429 65.97406779 -12.06700689 63.89786629 -15.28393555 60.34472656 C-15.86208008 59.48041016 -15.86208008 59.48041016 -16.4519043 58.59863281 C-16.85022461 58.01984375 -17.24854492 57.44105469 -17.65893555 56.84472656 C-20.08404529 52.68049429 -19.81757746 48.46207536 -19.8425293 43.80175781 C-19.84822937 42.97915466 -19.85392944 42.15655151 -19.85980225 41.309021 C-19.86924653 39.56735518 -19.87578396 37.82567153 -19.87963867 36.08398438 C-19.88931746 33.43489873 -19.92033451 30.78659803 -19.9519043 28.13769531 C-19.95843751 26.4423874 -19.96368673 24.74707396 -19.9675293 23.05175781 C-19.9798761 22.26609436 -19.9922229 21.48043091 -20.00494385 20.67095947 C-19.98112252 14.7132284 -18.97544482 9.82634268 -14.9206543 5.20019531 C-14.3328418 4.73355469 -13.7450293 4.26691406 -13.1394043 3.78613281 C-12.5515918 3.30402344 -11.9637793 2.82191406 -11.3581543 2.32519531 C-7.69724249 -0.15424041 -4.28657249 0.02413416 0 0 Z " fill="#7BCAFE" transform="translate(205.639404296875,273.8388671875)"/>
<path d="M0 0 C10.28232407 0.43575826 20.5495212 0.92006889 30.80859375 1.74731445 C66.94490891 4.58037992 103.04622173 4.36111225 139.26461506 4.21608078 C147.98611527 4.18179039 156.70762489 4.16586536 165.42917633 4.15097082 C183.2861941 4.1200894 201.14308577 4.06775549 219 4 C219.02712351 6.39591038 219.0468982 8.79150957 219.0625 11.1875 C219.07087891 11.86103516 219.07925781 12.53457031 219.08789062 13.22851562 C219.10654779 17.05323378 218.75942257 20.20288716 218 24 C147.05 24 76.1 24 3 24 C0 4 0 4 0 0 Z " fill="#CB4141" transform="translate(190,227)"/>
<path d="M0 0 C0.66 0 1.32 0 2 0 C2.14541967 4.22880411 2.23411527 8.45696413 2.3125 12.6875 C2.35439453 13.88568359 2.39628906 15.08386719 2.43945312 16.31835938 C2.5641812 25.27383529 2.5641812 25.27383529 -0.39453125 29.08203125 C-1.25433594 29.71496094 -2.11414063 30.34789062 -3 31 C-8.66129271 39.34655844 -4.66539956 56.1455519 -3.75 65.5 C-3.58624878 67.30694336 -3.58624878 67.30694336 -3.41918945 69.15039062 C-2.61371379 76.73506642 -1.6122577 83.3877423 4 89 C4.14497985 91.58064129 4.18677545 94.04943884 4.125 96.625 C4.11597656 97.33140625 4.10695313 98.0378125 4.09765625 98.765625 C4.07407603 100.51056098 4.03820461 102.25532295 4 104 C-5.19359015 104.1297037 -14.27140339 103.75697589 -23.4375 103.0625 C-24.66404297 102.97548828 -25.89058594 102.88847656 -27.15429688 102.79882812 C-32.49619185 102.40668249 -37.72308913 101.94359284 -43 101 C-44.46754948 81.8096464 -45.76863777 62.61238767 -46.99157715 43.4052124 C-47.21864821 39.84364541 -47.44729513 36.28217956 -47.67578125 32.72070312 C-48.11866764 25.81389636 -48.55991009 18.90698551 -49 12 C-47.91283691 11.97812622 -47.91283691 11.97812622 -46.80371094 11.95581055 C-43.45199502 11.88036228 -40.10117254 11.78402834 -36.75 11.6875 C-35.61046875 11.66494141 -34.4709375 11.64238281 -33.296875 11.61914062 C-20.60529425 11.22252873 -9.27100365 9.27100365 0 0 Z " fill="#E4E3E3" transform="translate(296,351)"/>
<path d="M0 0 C2.89073687 1.31913538 5.044397 2.78743667 7.375 4.9375 C16.46519574 12.85290349 26.97966097 13.28987265 38.5625 13.625 C39.66658203 13.66367187 40.77066406 13.70234375 41.90820312 13.7421875 C44.60531125 13.83559384 47.3024277 13.92136476 50 14 C50.09313853 20.97046948 49.73117117 27.82902086 49.1953125 34.77734375 C49.11127167 35.90153214 49.02723083 37.02572052 48.94064331 38.18397522 C48.67188797 41.76872677 48.39850684 45.35310818 48.125 48.9375 C47.94891737 51.27797214 47.7731338 53.61846679 47.59765625 55.95898438 C46.41910732 71.64089234 45.21042673 87.32052499 44 103 C38.00171613 103.68346551 32.00232679 104.35295721 26 105 C24.92105469 105.11730469 23.84210938 105.23460937 22.73046875 105.35546875 C14.15796356 106.18274547 5.60229979 106.09173068 -3 106 C-3.3466511 101.61550557 -3.52600766 97.37445149 -3 93 C-0.25 90.375 -0.25 90.375 1.40625 89.30859375 C7.22241804 84.53306362 7.51513674 74.62279466 8.25 67.625 C8.89794568 60.32745098 9.27431591 53.01135738 9.4375 45.6875 C9.47198242 44.8227002 9.50646484 43.95790039 9.54199219 43.06689453 C9.57707602 37.79916097 8.75460548 34.53205869 5.4284668 30.39428711 C3.908148 28.79060396 3.908148 28.79060396 1.2109375 27.4296875 C0.48132813 26.95789063 -0.24828125 26.48609375 -1 26 C-1.5234375 23.3203125 -1.5234375 23.3203125 -1.375 20.125 C-1.33117187 18.97902344 -1.28734375 17.83304687 -1.2421875 16.65234375 C-1.16226562 15.44707031 -1.08234375 14.24179687 -1 13 C-0.92007812 11.76378906 -0.84015625 10.52757812 -0.7578125 9.25390625 C-0.53457624 6.16580463 -0.28258108 3.08316138 0 0 Z " fill="#CAC9C9" transform="translate(350,349)"/>
<path d="M0 0 C14.19 0 28.38 0 43 0 C41.87436751 15.75885484 41.87436751 15.75885484 41.27563477 21.16967773 C41.14202042 22.38731308 41.00840607 23.60494843 40.8707428 24.85948181 C40.72906174 26.12143875 40.58738068 27.38339569 40.44140625 28.68359375 C40.29061445 30.03686246 40.13989477 31.39013921 39.98924255 32.74342346 C39.67608403 35.54947611 39.36061413 38.3552577 39.04370117 41.16088867 C38.63986401 44.73961906 38.24421237 48.31920453 37.8505106 51.89906216 C37.54317348 54.6817496 37.23038369 57.46380468 36.91609001 60.24571419 C36.69645824 62.2011154 36.48226665 64.15712523 36.26820374 66.11314392 C34.8894893 78.16543594 34.8894893 78.16543594 33 83 C30.26171875 84.37109375 30.26171875 84.37109375 27 85 C26.01644531 85.19722656 25.03289062 85.39445312 24.01953125 85.59765625 C14.02865828 87.04578522 4.07796346 87.56966608 -6 88 C-5.46384898 71.47957432 -4.53153772 55.01762388 -3.27050781 38.53710938 C-2.99594316 34.94695352 -2.72795997 31.35634902 -2.4609375 27.765625 C-2.28683148 25.44788861 -2.11236602 23.13017918 -1.9375 20.8125 C-1.85830322 19.75619385 -1.77910645 18.6998877 -1.69750977 17.61157227 C-1.58234009 16.11194946 -1.58234009 16.11194946 -1.46484375 14.58203125 C-1.36610962 13.28616089 -1.36610962 13.28616089 -1.26538086 11.96411133 C-0.90776551 7.96980775 -0.4428614 3.98575258 0 0 Z " fill="#AD0B0B" transform="translate(400,363)"/>
<path d="M0 0 C13.53 0 27.06 0 41 0 C42.14583173 3.4374952 42.34996145 6.68189353 42.57250977 10.26611328 C42.62142365 11.00311966 42.67033752 11.74012604 42.72073364 12.49946594 C42.88159855 14.93950659 43.03663664 17.37987821 43.19140625 19.8203125 C43.30181186 21.52084048 43.41248778 23.22135092 43.52342224 24.92184448 C43.75537864 28.49103205 43.98454397 32.06038468 44.21166992 35.62988281 C44.50173175 40.18610189 44.7978785 44.74189967 45.09605503 49.29759407 C45.32560274 52.81322256 45.55225829 56.32903293 45.77802849 59.84490585 C45.88607741 61.52333556 45.99491679 63.20171458 46.10458565 64.88003922 C47.15542143 81.01558264 47.15542143 81.01558264 47 89 C42.87418663 88.5488098 38.74953368 88.08773086 34.625 87.625 C32.89056641 87.43550781 32.89056641 87.43550781 31.12109375 87.2421875 C12.09200836 85.09200836 12.09200836 85.09200836 9 82 C8.55189514 79.92236328 8.55189514 79.92236328 8.26977539 77.3203125 C8.15948502 76.34328369 8.04919464 75.36625488 7.93556213 74.35961914 C7.82405319 73.29219482 7.71254425 72.22477051 7.59765625 71.125 C7.41280922 69.45715454 7.41280922 69.45715454 7.22422791 67.75561523 C6.82877188 64.17125515 6.44535966 60.58572531 6.0625 57 C5.80875953 54.67569193 5.55421065 52.35147197 5.29882812 50.02734375 C4.91622677 46.54278476 4.53468368 43.05813487 4.15737915 39.57299805 C3.12770121 30.07052032 2.03658158 20.57580355 0.91090393 11.08422852 C0.79133835 10.06514404 0.67177277 9.04605957 0.54858398 7.99609375 C0.44239243 7.10075928 0.33620087 6.2054248 0.22679138 5.28295898 C0 3 0 3 0 0 Z " fill="#D30101" transform="translate(206,363)"/>
<path d="M0 0 C0.68009125 -0.0065712 1.3601825 -0.0131424 2.06088257 -0.01991272 C4.31117877 -0.03961812 6.5614082 -0.05130401 8.81176758 -0.0612793 C9.96763083 -0.06739259 9.96763083 -0.06739259 11.14684486 -0.07362938 C15.22793941 -0.09448147 19.30900045 -0.10878514 23.39013672 -0.11816406 C27.59214219 -0.12920811 31.79361513 -0.16358674 35.99543285 -0.20333576 C39.23752278 -0.22956727 42.47948727 -0.2378618 45.72167397 -0.24144554 C47.26973364 -0.2462971 48.81778826 -0.25787009 50.36574364 -0.27648354 C67.32658292 -0.46770234 67.32658292 -0.46770234 73.77140808 5.5891571 C78.6248746 10.98354654 79.58278007 15.98989157 79.60473633 23.0402832 C79.61472153 24.16650337 79.61472153 24.16650337 79.62490845 25.31547546 C79.63500255 26.89974531 79.63972647 28.4840574 79.6394043 30.06835938 C79.64376676 32.47183674 79.68008734 34.87345967 79.71801758 37.27661133 C79.79486245 47.78287198 78.79787179 55.19162154 71.26879883 63.17700195 C67.14223342 66.23464248 64.08922183 66.55967731 59.00341797 66.58105469 C58.29056137 66.58791794 57.57770477 66.59478119 56.84324646 66.60185242 C54.49661097 66.62009109 52.15064595 66.61628729 49.80395508 66.6105957 C48.16637455 66.61515903 46.52879593 66.62046505 44.89122009 66.6264801 C41.46239431 66.63540549 38.03380152 66.6329948 34.60498047 66.62304688 C30.21892725 66.61155947 25.83367941 66.63176749 21.44773197 66.66096401 C18.06671573 66.6793431 14.68589186 66.67903016 11.30483818 66.67332649 C9.68816435 66.67317348 8.07147731 66.67920151 6.45485115 66.69161797 C4.19058386 66.70655881 1.92779638 66.69583017 -0.33642578 66.67871094 C-1.62262314 66.67854477 -2.9088205 66.6783786 -4.23399353 66.6782074 C-8.99756251 65.99551224 -12.10054855 63.94618089 -15.34057617 60.4309082 C-15.71698242 59.87274414 -16.09338867 59.31458008 -16.48120117 58.73950195 C-16.86791992 58.18391602 -17.25463867 57.62833008 -17.65307617 57.0559082 C-21.49352589 50.36295054 -21.06881544 43.68894856 -21.046875 36.19506836 C-21.04373008 33.94766033 -21.06714367 31.70158985 -21.0925293 29.4543457 C-21.17195259 12.39469724 -21.17195259 12.39469724 -15.79370117 5.80200195 C-14.77276367 4.99762695 -14.77276367 4.99762695 -13.73120117 4.17700195 C-13.05057617 3.62012695 -12.36995117 3.06325195 -11.66870117 2.48950195 C-7.86288882 -0.088629 -4.47343166 0.03578775 0 0 Z M-8.73120117 15.17700195 C-8.86939385 17.71212279 -8.94431763 20.2180633 -8.96948242 22.75512695 C-8.97755417 23.51871521 -8.98562592 24.28230347 -8.99394226 25.06903076 C-9.00780034 26.68979613 -9.01851476 28.31059089 -9.02636719 29.93139648 C-9.04353555 32.40315779 -9.08739785 34.87356605 -9.1315918 37.3449707 C-9.14172245 38.91917961 -9.15023739 40.4933999 -9.15698242 42.06762695 C-9.17449051 42.80426575 -9.1919986 43.54090454 -9.21003723 44.29986572 C-9.19565777 47.72628623 -8.8883035 49.91591376 -7.10964966 52.87185669 C-4.019111 55.86714567 -2.46302316 55.80945493 1.79394531 55.82397461 C2.43998718 55.83273621 3.08602905 55.8414978 3.75164795 55.8505249 C5.88175144 55.87248522 8.00976896 55.85798024 10.13989258 55.84106445 C11.62435808 55.84443407 13.1088209 55.8492879 14.59327698 55.8555603 C17.70291436 55.86292727 20.81183299 55.85223468 23.92138672 55.82885742 C27.90092274 55.80039295 31.87877103 55.81675747 35.8582449 55.84671974 C38.92361583 55.86481967 41.98858909 55.85902228 45.05397224 55.84608078 C46.52074446 55.84275284 47.98755316 55.84681239 49.45428276 55.85847855 C51.50857456 55.87123098 53.56016637 55.85175677 55.61425781 55.82397461 C56.78133774 55.81999664 57.94841766 55.81601868 59.15086365 55.81192017 C63.22492788 54.98230139 64.72493754 53.40439921 67.26879883 50.17700195 C67.7444879 47.29077739 67.92704708 45.01116212 67.86254883 42.13793945 C67.86258911 41.37526764 67.86262939 40.61259583 67.8626709 39.82681274 C67.85732826 38.22145302 67.83979896 36.61609285 67.81079102 35.01098633 C67.76880723 32.55249375 67.76973496 30.09673132 67.77661133 27.63793945 C67.76612234 26.07542041 67.75318579 24.51291546 67.73754883 22.95043945 C67.73734741 22.21602631 67.737146 21.48161316 67.73693848 20.72494507 C67.65129736 16.74706641 67.65129736 16.74706641 65.92700195 13.25366211 C62.4060615 10.96753911 59.20787739 11.04082069 55.13256836 11.01586914 C53.86760529 11.0062616 52.60264221 10.99665405 51.29934692 10.98675537 C49.91677023 10.98190745 48.53419143 10.97762861 47.15161133 10.97387695 C45.73298135 10.96812305 44.31435138 10.96236534 42.89572144 10.956604 C39.92160684 10.94610306 36.9475192 10.94025443 33.97338867 10.93676758 C30.16800593 10.93128373 26.36298116 10.90725463 22.55771065 10.87879562 C19.6271359 10.86014481 16.69664699 10.85496236 13.76601791 10.8534317 C12.36342282 10.8504103 10.96082906 10.84239903 9.55829239 10.82924652 C7.59354008 10.81213641 5.6286397 10.81591826 3.66381836 10.82055664 C2.54701691 10.81691101 1.43021545 10.81326538 0.27957153 10.80950928 C-3.4065329 11.25943244 -6.08666751 12.53246829 -8.73120117 15.17700195 Z " fill="#090606" transform="translate(385.731201171875,273.822998046875)"/>
<path d="M0 0 C6.62067873 0.71293455 13.23265751 1.1527732 19.88232422 1.48730469 C23.20263672 1.73339844 23.20263672 1.73339844 25.30517578 2.20166016 C57.5634259 8.12165247 93.06556857 6.04011858 125.7662735 6.04481125 C128.52434825 6.04587783 131.28239697 6.05056079 134.04046631 6.05593872 C167.80744748 6.10572921 201.5649039 5.11256973 235.20043945 1.98339844 C237.99400182 1.72374446 240.7885633 1.47782676 243.58349609 1.23339844 C252.78309271 0.41512349 261.93617362 -0.54140409 271.07861328 -1.85668945 C284.18093401 -3.57588268 284.18093401 -3.57588268 288.89013672 -0.01660156 C291.20263672 2.73339844 291.20263672 2.73339844 291.20263672 6.73339844 C266.1361811 9.76985877 241.0762946 12.0552548 215.87176514 13.57196045 C213.28013093 13.72871132 210.68890413 13.89120449 208.09765625 14.05419922 C127.85036208 18.99987674 45.95801374 16.85884341 -33.79736328 6.73339844 C-33.01756883 2.9378683 -31.77507561 1.2732119 -28.79736328 -1.26660156 C-20.39991326 -4.06575157 -8.78176586 -0.96650759 0 0 Z " fill="#FBFBFB" transform="translate(195.79736328125,193.2666015625)"/>
<path d="M0 0 C0.67033768 -0.0049649 1.34067535 -0.00992981 2.03132629 -0.01504517 C4.24916616 -0.02964893 6.4669344 -0.0364673 8.68481445 -0.04199219 C10.23077902 -0.047747 11.77674358 -0.05350469 13.32270813 -0.05926514 C16.56670463 -0.06977135 19.81067638 -0.07561587 23.0546875 -0.07910156 C27.19606357 -0.08457247 31.33710858 -0.10857173 35.47838116 -0.13707352 C38.67414783 -0.15577335 41.86983611 -0.16090948 45.06565285 -0.16243744 C46.5913657 -0.16545012 48.11707763 -0.17343153 49.64273643 -0.18662262 C67.07948316 -0.32656891 67.07948316 -0.32656891 73.3840332 4.80957031 C74.05305664 5.66421875 74.05305664 5.66421875 74.7355957 6.53613281 C75.42782227 7.38304687 75.42782227 7.38304687 76.1340332 8.24707031 C79.23144323 13.08060825 79.69046354 17.56985067 79.73168945 23.20800781 C79.74071793 23.97864563 79.7497464 24.74928345 79.75904846 25.54327393 C79.77351515 27.17041158 79.78242878 28.79760694 79.78613281 30.42480469 C79.79799411 32.89001906 79.84717905 35.3526986 79.89770508 37.81738281 C80.05826824 53.44893534 80.05826824 53.44893534 74.3605957 60.16113281 C69.21332474 65.05731739 65.37229418 66.40920482 58.30053711 66.45166016 C57.24610161 66.46173599 57.24610161 66.46173599 56.17036438 66.47201538 C53.85089004 66.49098354 51.53170524 66.49491895 49.2121582 66.49707031 C47.59556968 66.50349916 45.97898233 66.51022759 44.36239624 66.51724243 C40.97472436 66.52921229 37.58715443 66.53292357 34.19946289 66.53173828 C29.86610128 66.53153513 25.53339577 66.55883428 21.20018959 66.5932827 C17.86122659 66.61555973 14.52242127 66.61957558 11.18339157 66.61851883 C9.58624384 66.62087369 7.98909169 66.62969085 6.39201736 66.64518356 C4.15403023 66.66486056 1.917455 66.65900026 -0.32055664 66.64697266 C-2.22772964 66.65124771 -2.22772964 66.65124771 -4.1734314 66.65560913 C-8.95061429 65.97406779 -12.06700689 63.89786629 -15.28393555 60.34472656 C-15.86208008 59.48041016 -15.86208008 59.48041016 -16.4519043 58.59863281 C-16.85022461 58.01984375 -17.24854492 57.44105469 -17.65893555 56.84472656 C-20.08404529 52.68049429 -19.81757746 48.46207536 -19.8425293 43.80175781 C-19.84822937 42.97915466 -19.85392944 42.15655151 -19.85980225 41.309021 C-19.86924653 39.56735518 -19.87578396 37.82567153 -19.87963867 36.08398438 C-19.88931746 33.43489873 -19.92033451 30.78659803 -19.9519043 28.13769531 C-19.95843751 26.4423874 -19.96368673 24.74707396 -19.9675293 23.05175781 C-19.9798761 22.26609436 -19.9922229 21.48043091 -20.00494385 20.67095947 C-19.98112252 14.7132284 -18.97544482 9.82634268 -14.9206543 5.20019531 C-14.3328418 4.73355469 -13.7450293 4.26691406 -13.1394043 3.78613281 C-12.5515918 3.30402344 -11.9637793 2.82191406 -11.3581543 2.32519531 C-7.69724249 -0.15424041 -4.28657249 0.02413416 0 0 Z M-8.6394043 15.16113281 C-8.77759697 17.69625365 -8.85252076 20.20219416 -8.87768555 22.73925781 C-8.88575729 23.50284607 -8.89382904 24.26643433 -8.90214539 25.05316162 C-8.91600347 26.67392699 -8.92671788 28.29472175 -8.93457031 29.91552734 C-8.95173868 32.38728865 -8.99560097 34.85769691 -9.03979492 37.32910156 C-9.04992557 38.90331047 -9.05844051 40.47753076 -9.06518555 42.05175781 C-9.08269363 42.78839661 -9.10020172 43.5250354 -9.11824036 44.28399658 C-9.10386089 47.71041709 -8.79650663 49.90004461 -7.01785278 52.85598755 C-3.92731412 55.85127653 -2.37122628 55.79358579 1.88574219 55.80810547 C2.53178406 55.81686707 3.17782593 55.82562866 3.84344482 55.83465576 C5.97354831 55.85661608 8.10156584 55.8421111 10.23168945 55.82519531 C11.71615496 55.82856493 13.20061777 55.83341876 14.68507385 55.83969116 C17.79471124 55.84705813 20.90362987 55.83636554 24.01318359 55.81298828 C27.99271961 55.78452381 31.97056791 55.80088833 35.95004177 55.8308506 C39.0154127 55.84895053 42.08038597 55.84315314 45.14576912 55.83021164 C46.61254134 55.8268837 48.07935004 55.83094325 49.54607964 55.84260941 C51.60037143 55.85536184 53.65196324 55.83588763 55.70605469 55.80810547 C56.87313461 55.8041275 58.04021454 55.80014954 59.24266052 55.79605103 C63.31672475 54.96643225 64.81673441 53.38853007 67.3605957 50.16113281 C67.83628477 47.27490825 68.01884395 44.99529297 67.9543457 42.12207031 C67.95438599 41.3593985 67.95442627 40.59672668 67.95446777 39.8109436 C67.94912514 38.20558388 67.93159584 36.60022371 67.90258789 34.99511719 C67.8606041 32.53662461 67.86153184 30.08086217 67.8684082 27.62207031 C67.85791921 26.05955127 67.84498267 24.49704632 67.8293457 22.93457031 C67.82914429 22.20015717 67.82894287 21.46574402 67.82873535 20.70907593 C67.74309423 16.73119727 67.74309423 16.73119727 66.01879883 13.23779297 C62.49785837 10.95166997 59.29967427 11.02495155 55.22436523 11 C53.95940216 10.99039246 52.69443909 10.98078491 51.3911438 10.97088623 C50.0085671 10.96603831 48.62598831 10.96175947 47.2434082 10.95800781 C45.82477822 10.95225391 44.40614826 10.9464962 42.98751831 10.94073486 C40.01340371 10.93023392 37.03931607 10.92438529 34.06518555 10.92089844 C30.25980281 10.91541459 26.45477803 10.89138549 22.64950752 10.86292648 C19.71893278 10.84427567 16.78844386 10.83909322 13.85781479 10.83756256 C12.4552197 10.83454116 11.05262594 10.82652989 9.65008926 10.81337738 C7.68533695 10.79626727 5.72043657 10.80004912 3.75561523 10.8046875 C2.63881378 10.80104187 1.52201233 10.79739624 0.37136841 10.79364014 C-3.31473602 11.2435633 -5.99487063 12.51659915 -8.6394043 15.16113281 Z " fill="#040708" transform="translate(205.639404296875,273.8388671875)"/>
<path d="M0 0 C1.27855865 -0.00855011 1.27855865 -0.00855011 2.58294678 -0.01727295 C4.39203647 -0.02673986 6.20114353 -0.03326361 8.01025391 -0.03710938 C10.77146858 -0.04678596 13.53192991 -0.07778078 16.29296875 -0.109375 C18.04947474 -0.11590774 19.80598607 -0.12115715 21.5625 -0.125 C22.38663391 -0.1373468 23.21076782 -0.1496936 24.05987549 -0.16241455 C28.6866959 -0.14454853 31.85100292 0.10544897 35.546875 3.203125 C40.78454402 10.66217957 37.20998333 24.60598587 36.296875 33.078125 C36.18730469 34.26148438 36.07773437 35.44484375 35.96484375 36.6640625 C34.7757088 47.77934496 34.7757088 47.77934496 30.546875 52.203125 C24.85403149 55.0986447 18.87370354 54.57521074 12.62695312 54.57373047 C10.5525556 54.578113 8.48027307 54.6145002 6.40625 54.65234375 C4.43398438 54.65814453 4.43398438 54.65814453 2.421875 54.6640625 C1.22304688 54.67228027 0.02421875 54.68049805 -1.2109375 54.68896484 C-5.06694972 54.11114373 -6.68540251 52.88914814 -9.453125 50.203125 C-11.74089924 46.89701222 -11.77202759 43.78510347 -11.953125 39.828125 C-12.23731611 34.84702984 -12.73276075 30.00524263 -13.515625 25.078125 C-15.91693609 8.6568515 -15.91693609 8.6568515 -13.3671875 4.3828125 C-12.015625 3.015625 -12.015625 3.015625 -9.453125 1.203125 C-7.36870915 -0.88129085 -2.87549473 0.01468403 0 0 Z " fill="#AF0C0C" transform="translate(313.453125,381.796875)"/>
<path d="M0 0 C0.66 0.33 1.32 0.66 2 1 C1.27087654 1.5928051 1.27087654 1.5928051 0.52702332 2.19758606 C-1.44815962 4.52898285 -1.39343317 5.8091007 -1.43237305 8.83862305 C-1.45216721 9.8194133 -1.47196136 10.80020355 -1.49235535 11.81071472 C-1.50194023 13.39521172 -1.50194023 13.39521172 -1.51171875 15.01171875 C-1.52966995 16.09508011 -1.54762115 17.17844147 -1.56611633 18.29463196 C-1.62034985 21.75888157 -1.65415744 25.22299238 -1.6875 28.6875 C-1.72066149 31.03452458 -1.75515004 33.38153081 -1.79101562 35.72851562 C-1.8760841 41.48557713 -1.9428334 47.24259654 -2 53 C0.97 53 3.94 53 7 53 C6.98952637 52.29915283 6.97905273 51.59830566 6.96826172 50.8762207 C6.92658332 47.68835055 6.90063615 44.50053785 6.875 41.3125 C6.85824219 40.20970703 6.84148437 39.10691406 6.82421875 37.97070312 C6.81777344 36.90400391 6.81132812 35.83730469 6.8046875 34.73828125 C6.79421387 33.75899658 6.78374023 32.77971191 6.77294922 31.77075195 C7.01402315 28.82887228 7.76944458 26.66762274 9 24 C10.60757283 27.21514566 10.03546889 30.70193117 9.95703125 34.2265625 C9.93462431 35.91535259 9.91317097 37.60415556 9.89257812 39.29296875 C9.85563109 41.95266617 9.8127981 44.61170451 9.75317383 47.27099609 C9.69827248 49.83961193 9.66946917 52.40750282 9.64453125 54.9765625 C9.62074905 55.76020172 9.59696686 56.54384094 9.57246399 57.35122681 C9.54595617 63.01149621 10.83469111 67.2731675 14 72 C18.73911035 76.40060247 21.40829752 77.12804539 27.80126953 77.19287109 C28.85044807 77.20513733 28.85044807 77.20513733 29.92082214 77.21765137 C32.24147691 77.24251161 34.56207026 77.25902722 36.8828125 77.2734375 C38.07314905 77.28142302 38.07314905 77.28142302 39.28753281 77.28956985 C43.49180892 77.31631041 47.69605532 77.33567813 51.90039062 77.35009766 C55.37299079 77.36341228 58.8449999 77.3912167 62.31738281 77.43212891 C66.51486455 77.48158354 70.71181198 77.50623497 74.9095726 77.51332474 C76.50510359 77.5200178 78.10062358 77.53518911 79.6959877 77.55921555 C91.79188697 77.89696476 91.79188697 77.89696476 102 72 C103.88063508 70.01137517 103.88063508 70.01137517 104.9375 67.8125 C105.31777344 67.13832031 105.69804687 66.46414063 106.08984375 65.76953125 C107.47459072 61.89220888 107.47459072 61.89220888 108 53 C118.56 53 129.12 53 140 53 C137.525 55.475 137.525 55.475 135 58 C134.02939708 58.99145993 133.06115205 59.98524139 132.09667969 60.98266602 C129.27042308 63.89815847 126.42880059 66.79813608 123.58154297 69.69311523 C122.36311869 70.93671357 121.14921569 72.18475825 119.93994141 73.43725586 C108.73989281 85.02566622 101.11741644 89.76034568 84.73425293 90.11207581 C79.46108546 90.19421834 74.18777866 90.21926449 68.9140625 90.23828125 C67.47900927 90.24439454 67.47900927 90.24439454 66.01496506 90.25063133 C60.96587092 90.27137037 55.9168031 90.28573283 50.86767578 90.29516602 C45.65550435 90.30629921 40.44375176 90.34081215 35.23172951 90.38033772 C31.21519154 90.40642716 27.19875561 90.41485022 23.18214035 90.41844749 C21.25956721 90.42332109 19.33699885 90.434957 17.41450882 90.45348549 C14.73383708 90.47774849 12.0542823 90.47693755 9.37353516 90.4699707 C8.58076172 90.48278076 7.78798828 90.49559082 6.97119141 90.50878906 C3.63423527 90.47711244 1.37754683 90.23146373 -1.49198914 88.472229 C-3.59514316 85.02432388 -3.55176574 81.89388724 -3.50170898 77.97436523 C-3.50711197 77.16905365 -3.51251495 76.36374207 -3.51808167 75.5340271 C-3.53057754 72.87517418 -3.51407425 70.21740216 -3.49609375 67.55859375 C-3.4962487 65.71061649 -3.49773707 63.86263889 -3.50050354 62.0146637 C-3.50188786 58.14349994 -3.48932276 54.27270654 -3.46655273 50.40161133 C-3.4381481 45.43578926 -3.44091034 40.4705817 -3.45364285 35.50471401 C-3.4605919 31.68975053 -3.45281995 27.8749295 -3.44038582 24.05998421 C-3.43586518 22.22872526 -3.43553985 20.39745106 -3.43945122 18.56619072 C-3.44235639 16.00922058 -3.42589106 13.45310276 -3.40405273 10.89624023 C-3.40855438 10.13719894 -3.41305603 9.37815765 -3.41769409 8.59611511 C-3.34454078 3.45031682 -3.34454078 3.45031682 -1.4747467 1.00648499 C-0.74474709 0.50827492 -0.74474709 0.50827492 0 0 Z " fill="#DDDDDD" transform="translate(177,262)"/>
<path d="M0 0 C0.33 0 0.66 0 1 0 C1.09264316 10.75269899 1.16373616 21.50530318 1.20724869 32.25831985 C1.22813162 37.25129534 1.25646222 42.24399797 1.30175781 47.23681641 C1.34519028 52.05436641 1.36913178 56.8716538 1.37950897 61.68938446 C1.38690502 63.52823776 1.40134769 65.36707654 1.42292023 67.20581818 C1.45192002 69.7797817 1.4559575 72.35265745 1.45410156 74.92675781 C1.46848267 75.68848801 1.48286377 76.4502182 1.49768066 77.23503113 C1.47226681 80.48821361 1.19998001 82.66915522 -0.49554443 85.47421265 C-4.08827604 87.66300949 -7.44413297 87.54258542 -11.52539062 87.48583984 C-12.38452057 87.48963654 -13.24365051 87.49343323 -14.1288147 87.49734497 C-16.97166379 87.50475821 -19.81349146 87.48334358 -22.65625 87.4609375 C-24.63960653 87.45855167 -26.62296534 87.45764805 -28.60632324 87.4581604 C-32.76926781 87.45503019 -36.93186855 87.43845837 -41.09472656 87.41162109 C-46.40259418 87.37781818 -51.7100809 87.36998758 -57.01804352 87.37151146 C-61.11901414 87.37096424 -65.21990326 87.35993813 -69.32084656 87.34550858 C-71.27584721 87.339188 -73.23085701 87.33521291 -75.18586731 87.33372116 C-104.94339537 87.28619681 -104.94339537 87.28619681 -115.87187195 76.35472107 C-116.44395889 75.77231155 -117.01604584 75.18990204 -117.60546875 74.58984375 C-118.2113533 73.9811293 -118.81723785 73.37241486 -119.44148254 72.74525452 C-121.36160527 70.81401608 -123.27463494 68.87592458 -125.1875 66.9375 C-126.48325785 65.63169877 -127.77947752 64.32635564 -129.07617188 63.02148438 C-131.92727055 60.15081489 -134.77392038 57.27581854 -137.61662292 54.39683533 C-139.07289254 52.92639832 -140.53662955 51.46337045 -142 50 C-131.77 50 -121.54 50 -111 50 C-111.07896574 41.95250017 -111.07896574 41.95250017 -111.18017578 33.90527344 C-111.1851709 32.90012695 -111.19016602 31.89498047 -111.1953125 30.859375 C-111.20578613 29.83295898 -111.21625977 28.80654297 -111.22705078 27.74902344 C-110.99836111 24.98015712 -110.4243299 23.35581208 -109 21 C-108.505 21.99 -108.505 21.99 -108 23 C-108.495 24.485 -108.495 24.485 -109 26 C-109.2756239 30.58896357 -109.31352276 35.1800425 -109.35009766 39.77612305 C-109.36656444 41.2879994 -109.39373069 42.79980094 -109.43212891 44.3112793 C-109.6614424 53.40106694 -109.59161965 61.32969244 -104 69 C-99.28222733 73.49834138 -96.50557082 74.12800905 -90.07519531 74.17700195 C-89.36277679 74.18357315 -88.65035828 74.19014435 -87.91635132 74.19691467 C-85.55360817 74.21665896 -83.19092867 74.22831384 -80.828125 74.23828125 C-80.02103844 74.24235678 -79.21395187 74.2464323 -78.38240814 74.25063133 C-74.10910802 74.27149871 -69.83584006 74.28579648 -65.5625 74.29516602 C-61.15289502 74.30622096 -56.74379599 74.34060797 -52.33436966 74.38033772 C-48.94052202 74.40651335 -45.54679462 74.41485876 -42.15285492 74.41844749 C-40.52778463 74.42331247 -38.90271967 74.434924 -37.27774811 74.45348549 C-34.99888858 74.47789415 -32.72133367 74.47690929 -30.44238281 74.4699707 C-29.14713684 74.47583694 -27.85189087 74.48170319 -26.51739502 74.48774719 C-21.077174 73.73336717 -18.0406594 71.35863867 -14.75 67.0625 C-11.43644035 61.26377061 -10.59153945 56.60552384 -10 50 C-6.7 50 -3.4 50 0 50 C0 33.5 0 17 0 0 Z " fill="#DFDFDF" transform="translate(475,265)"/>
<path d="M0 0 C3.19353417 1.52418676 5.75011827 3.26572447 8 6 C8.36328125 8.15625 8.36328125 8.15625 8.3125 10.5 C8.30863281 11.2734375 8.30476563 12.046875 8.30078125 12.84375 C8 15 8 15 6 18 C6.33985484 21.0586936 7.22831068 23.65068543 8.25 26.5625 C9 30 9 30 7.625 32.4375 C7.08875 32.953125 6.5525 33.46875 6 34 C5.1440625 33.83886719 4.288125 33.67773438 3.40625 33.51171875 C0.05458351 33.00820004 -3.11307897 32.83266024 -6.5 32.8125 C-7.5828125 32.79832031 -8.665625 32.78414062 -9.78125 32.76953125 C-16.73065787 33.26712235 -22.14647033 36.09653689 -27 41 C-29.59993176 45.11762591 -31.46303419 49.38910256 -33 54 C-34.68458324 54.72668296 -36.37260547 55.44713388 -38.08203125 56.11328125 C-41.72080396 57.79556517 -45.18787322 60.37574643 -47 64 C-47.99 64 -48.98 64 -50 64 C-49.94199219 63.10539062 -49.88398438 62.21078125 -49.82421875 61.2890625 C-49.51806497 53.08414128 -49.93397926 46.70233234 -55 40 C-56.95693028 38.24013764 -58.63492085 37.2100405 -61 36 C-61 33.8125 -61 33.8125 -60 31 C-56.53816038 28.09172423 -53.03313856 26.22958635 -48.625 25.25 C-47.75875 24.8375 -46.8925 24.425 -46 24 C-45.26210305 21.79083613 -44.91694328 19.62234278 -44.546875 17.32421875 C-43.48715609 12.8204134 -40.70770489 10.0734145 -36.8125 7.625 C-31.45295932 6.43399096 -26.07684999 5.91642609 -21.125 8.5 C-20.42375 8.995 -19.7225 9.49 -19 10 C-17.68 10 -16.36 10 -15 10 C-14.608125 9.0925 -14.21625 8.185 -13.8125 7.25 C-10.3806567 1.09634994 -7.06520328 -0.88315041 0 0 Z " fill="#FACD4E" transform="translate(341,60)"/>
<path d="M0 0 C0.79141891 -0.0066568 1.58283783 -0.0133136 2.39823914 -0.02017212 C4.06649466 -0.03025693 5.73479019 -0.03499044 7.40307617 -0.03466797 C9.93151687 -0.03903195 12.45819666 -0.07536789 14.98632812 -0.11328125 C25.74986732 -0.18801326 34.50332909 0.44176519 42.63671875 8.3359375 C46.31507198 12.96727813 46.06283506 17.24757516 45.94921875 22.8984375 C45.93793945 23.81866699 45.92666016 24.73889648 45.91503906 25.68701172 C45.27243068 58.74752189 45.27243068 58.74752189 37.99609375 67.25390625 C32.46853044 72.31282832 27.19663329 73.65133022 19.7734375 73.70703125 C19.02262405 73.71605972 18.27181061 73.7250882 17.49824524 73.73439026 C15.91399089 73.74885284 14.32967736 73.75776955 12.74536133 73.76147461 C10.34156773 73.77335178 7.94036051 73.82255323 5.53710938 73.87304688 C-9.50573389 74.03156378 -9.50573389 74.03156378 -15.36328125 68.3359375 C-19.94175506 63.51649138 -21.49542861 58.81070436 -22.21484375 52.28515625 C-22.34439453 51.11887695 -22.47394531 49.95259766 -22.60742188 48.75097656 C-26.09801752 14.58789049 -26.09801752 14.58789049 -20.78515625 7.8125 C-14.61732484 1.4074443 -8.73701781 0.02592291 0 0 Z M-14.36328125 15.3359375 C-14.69328125 15.6659375 -15.02328125 15.9959375 -15.36328125 16.3359375 C-15.93491028 23.92663926 -15.06228702 31.25143262 -13.859375 38.734375 C-13.34807345 42.44634373 -13.1497835 46.09381213 -12.98828125 49.8359375 C-12.64639593 55.28168218 -12.12472986 58.35322721 -8.36328125 62.3359375 C-3.56015773 65.53801985 1.70135508 64.6695209 7.35083008 64.65161133 C9.43169144 64.64846401 11.51111255 64.67187038 13.59179688 64.69726562 C14.92577947 64.69954018 16.25976586 64.70024139 17.59375 64.69921875 C19.4032312 64.70369019 19.4032312 64.70369019 21.24926758 64.70825195 C25.08574984 64.28658453 27.40652566 63.44031371 30.63671875 61.3359375 C33.40177135 57.81167588 34.11495031 54.76847796 34.5859375 50.36328125 C34.71162109 49.21537109 34.83730469 48.06746094 34.96679688 46.88476562 C35.1437207 45.0971582 35.1437207 45.0971582 35.32421875 43.2734375 C35.45376953 42.10876953 35.58332031 40.94410156 35.71679688 39.74414062 C37.96786424 26.07127671 37.96786424 26.07127671 34.63671875 13.3359375 C30.31822084 9.75007826 26.14877712 9.86851668 20.79296875 9.8671875 C19.9462561 9.85957397 19.09954346 9.85196045 18.22717285 9.84411621 C16.44200583 9.83333989 14.65677589 9.83045206 12.87158203 9.83496094 C10.14508899 9.83593451 7.42140044 9.79426266 4.6953125 9.75 C2.9570371 9.74479342 1.21875195 9.7421048 -0.51953125 9.7421875 C-1.73690979 9.7175946 -1.73690979 9.7175946 -2.97888184 9.69250488 C-8.49023322 9.75960667 -10.78575528 10.8405623 -14.36328125 15.3359375 Z " fill="#080404" transform="translate(314.36328125,371.6640625)"/>
<path d="M0 0 C4.4758166 2.69214488 8.23293593 6.2792151 12 9.875 C12.53279572 10.37766388 13.06559143 10.88032776 13.61453247 11.39822388 C19.48493298 17.10125538 23.61494216 21.81929301 24.05859375 30.31640625 C23.75809499 36.68300784 22.66784285 42.85340159 21 49 C20.18321777 48.83918945 19.36643555 48.67837891 18.52490234 48.51269531 C14.53677308 47.93262387 10.62209031 47.81955857 6.6015625 47.796875 C5.80777191 47.79117493 5.01398132 47.78547485 4.19613647 47.77960205 C2.52367468 47.77019593 0.85119471 47.76363562 -0.82128906 47.75976562 C-3.36035883 47.75005599 -5.89861957 47.71898999 -8.4375 47.6875 C-10.07030774 47.68096885 -11.70312122 47.67571882 -13.3359375 47.671875 C-14.08515472 47.6595282 -14.83437195 47.6471814 -15.60629272 47.63446045 C-21.0097066 47.656958 -25.03001845 48.87391725 -30 51 C-32.1286473 42.3290334 -34.55980314 31.36602992 -29.96520996 23.1494751 C-26.79218322 18.58317879 -22.95645346 14.69582865 -18.9375 10.875 C-18.36339386 10.32313019 -17.78928772 9.77126038 -17.19778442 9.20266724 C-15.52165243 7.62037612 -13.81909345 6.0786242 -12.08984375 4.5546875 C-11.57066376 4.09032791 -11.05148376 3.62596832 -10.51657104 3.14753723 C-6.95829491 0.19470008 -4.58159655 -0.83472666 0 0 Z " fill="#D00101" transform="translate(328,325)"/>
<path d="M0 0 C1.65087891 1.06933594 1.65087891 1.06933594 3 3 C3.32265839 5.66943544 3.4680172 8.10146665 3.46875 10.7734375 C3.48017029 11.91457504 3.48017029 11.91457504 3.49182129 13.07876587 C3.50262097 14.68756837 3.50547589 16.29644098 3.50097656 17.90527344 C3.50000596 20.35992334 3.54158454 22.81142803 3.5859375 25.265625 C3.59114615 26.83072267 3.59383267 28.39583117 3.59375 29.9609375 C3.61014526 30.69130219 3.62654053 31.42166687 3.64343262 32.17416382 C3.59338867 35.88851846 3.19589879 37.7505392 0.88142395 40.6978302 C-2.63206454 43.50500028 -4.27017846 43.60950868 -8.71801758 43.56762695 C-9.37223694 43.56835709 -10.0264563 43.56908722 -10.70050049 43.56983948 C-12.849373 43.56637338 -14.99604056 43.52756664 -17.14453125 43.48828125 C-18.63952958 43.47894945 -20.13454326 43.47183507 -21.62956238 43.46684265 C-25.55413429 43.44780118 -29.47777298 43.39872681 -33.40197754 43.34332275 C-37.41043474 43.2920676 -41.41904355 43.26931536 -45.42773438 43.24414062 C-53.28558332 43.19060369 -61.14267539 43.10532735 -69 43 C-69 42.67 -69 42.34 -69 42 C-67.783125 42.04125 -66.56625 42.0825 -65.3125 42.125 C-58.46577616 41.35474357 -53.80678285 36.68630133 -48.72363281 32.42919922 C-46.4903429 30.5774033 -44.20272712 28.80163369 -41.91015625 27.02416992 C-36.83939821 23.08958938 -31.8427297 19.06860133 -26.87768555 15.00170898 C-24.20714284 12.81735091 -21.52621612 10.64617988 -18.83935547 8.48193359 C-17.66393411 7.53491904 -16.49084053 6.5850032 -15.32080078 5.63134766 C-13.85367885 4.44402585 -12.36502039 3.28345547 -10.875 2.125 C-10.06804687 1.48820312 -9.26109375 0.85140625 -8.4296875 0.1953125 C-5.17468708 -1.40602211 -3.42693412 -1.04944053 0 0 Z " fill="#E83939" transform="translate(450,286)"/>
<path d="M0 0 C2.83984375 1.328125 2.83984375 1.328125 4.83984375 3.328125 C5.07635695 5.92223197 5.19210146 8.40621296 5.2109375 11.00390625 C5.21996597 11.76607956 5.22899445 12.52825287 5.23829651 13.31352234 C5.25281612 14.92829451 5.26169 16.54312575 5.26538086 18.15795898 C5.27725063 20.62129947 5.32638969 23.08211254 5.37695312 25.54492188 C5.38642061 27.11457112 5.39365409 28.68423574 5.3984375 30.25390625 C5.41796982 30.98740799 5.43750214 31.72090973 5.45762634 32.47663879 C5.4249818 36.20366151 5.04389529 38.06806507 2.72225952 41.02694702 C-0.791918 43.83249229 -2.43073392 43.93762992 -6.87817383 43.89575195 C-7.53239319 43.89648209 -8.18661255 43.89721222 -8.86065674 43.89796448 C-11.00952925 43.89449838 -13.15619681 43.85569164 -15.3046875 43.81640625 C-16.79968583 43.80707445 -18.29469951 43.79996007 -19.78971863 43.79496765 C-23.71429054 43.77592618 -27.63792923 43.72685181 -31.56213379 43.67144775 C-35.57059099 43.6201926 -39.5791998 43.59744036 -43.58789062 43.57226562 C-51.44573957 43.51872869 -59.30283164 43.43345235 -67.16015625 43.328125 C-67.16015625 42.998125 -67.16015625 42.668125 -67.16015625 42.328125 C-66.52851563 42.38355469 -65.896875 42.43898438 -65.24609375 42.49609375 C-55.95428892 42.56303759 -50.69507718 37.73118758 -44.05761719 31.96337891 C-40.79937993 29.15539214 -37.44200507 26.46986489 -34.09765625 23.765625 C-33.09158325 22.9449353 -33.09158325 22.9449353 -32.06518555 22.10766602 C-26.83349176 17.84289851 -21.52039989 13.70244455 -16.1328125 9.63671875 C-14.15745586 8.10263757 -12.22584848 6.51044372 -10.34375 4.86328125 C-9.04630859 3.73212891 -9.04630859 3.73212891 -7.72265625 2.578125 C-6.98144531 1.90265625 -6.24023438 1.2271875 -5.4765625 0.53125 C-3.16015625 -0.671875 -3.16015625 -0.671875 0 0 Z " fill="#069AFC" transform="translate(268.16015625,285.671875)"/>
<path d="M0 0 C2.97672584 1.77280561 5.42804007 3.85608015 7 7 C7.07116382 9.37402501 7.08409085 11.75000677 7.0625 14.125 C7.05347656 15.40632813 7.04445313 16.68765625 7.03515625 18.0078125 C7.02355469 18.99523437 7.01195312 19.98265625 7 21 C7.66386719 21.15855469 8.32773437 21.31710938 9.01171875 21.48046875 C16.18689835 23.37639212 19.8168295 25.72524424 24 32 C24.30078125 34.375 24.30078125 34.375 24.3125 37 C24.32925781 37.86625 24.34601563 38.7325 24.36328125 39.625 C24 42 24 42 22.98828125 43.81640625 C19.79912521 45.71486259 16.45767578 45.13110614 12.875 44.9375 C5.87654351 44.72607295 1.1779335 45.56936424 -5 49 C-9.50684932 50.24657534 -9.50684932 50.24657534 -12 49 C-12.20702766 46.98591661 -12.31458823 44.96129415 -12.375 42.9375 C-12.9184884 34.78517396 -14.70697312 29.91695908 -20.625 24.25 C-24.96454243 20.67192445 -29.69711413 18.74951767 -35 17 C-34.67 15.35 -34.34 13.7 -34 12 C-30.26512223 12.4979837 -28.18762365 12.87491756 -25 15 C-22.51176074 14.81931089 -22.51176074 14.81931089 -20 14 C-19.278125 13.79375 -18.55625 13.5875 -17.8125 13.375 C-15.63637625 12.01249966 -15.63637625 12.01249966 -15.0625 8.625 C-13.83572548 4.439534 -12.5882634 3.33237121 -9 1 C-5.85088521 -0.57455739 -3.47991184 -0.34799118 0 0 Z " fill="#F8CB4D" transform="translate(418,99)"/>
<path d="M0 0 C2.89073687 1.31913538 5.044397 2.78743667 7.375 4.9375 C16.63126813 12.99751314 27.41931373 13.27956985 39.15429688 13.56640625 C40.00958984 13.59605469 40.86488281 13.62570312 41.74609375 13.65625 C42.51622803 13.67494141 43.2863623 13.69363281 44.07983398 13.71289062 C46 14 46 14 48 16 C37.83527882 29.73798494 25.45297617 43.40935919 12 54 C11.34 54 10.68 54 10 54 C9.98582031 52.78183594 9.97164063 51.56367188 9.95703125 50.30859375 C9.91010251 48.68485927 9.86185529 47.06116253 9.8125 45.4375 C9.80669922 44.63763672 9.80089844 43.83777344 9.79492188 43.01367188 C9.5785028 37.12226366 8.24058287 33.2040072 4 29 C3.07960938 28.48179687 2.15921875 27.96359375 1.2109375 27.4296875 C0.48132813 26.95789063 -0.24828125 26.48609375 -1 26 C-1.5234375 23.3203125 -1.5234375 23.3203125 -1.375 20.125 C-1.33117187 18.97902344 -1.28734375 17.83304687 -1.2421875 16.65234375 C-1.16226562 15.44707031 -1.08234375 14.24179687 -1 13 C-0.92007812 11.76378906 -0.84015625 10.52757812 -0.7578125 9.25390625 C-0.53457624 6.16580463 -0.28258108 3.08316138 0 0 Z " fill="#E3E3E3" transform="translate(350,349)"/>
<path d="M0 0 C0.29448852 8.39292285 -0.84696492 15.3522369 -2 24 C-17.84 24 -33.68 24 -50 24 C-49.67 17.07 -49.34 10.14 -49 3 C-43.78991666 2.56860818 -38.57974784 2.14002651 -33.36889648 1.71826172 C-31.60086249 1.57434636 -29.83295445 1.42887406 -28.06518555 1.28173828 C-9.22918405 -0.28393445 -9.22918405 -0.28393445 0 0 Z " fill="#D20000" transform="translate(458,227)"/>
<path d="M0 0 C18.01362185 0.77874588 36.00504756 1.88050961 54 3 C52.68 3.33 51.36 3.66 50 4 C50.33 10.6 50.66 17.2 51 24 C35.16 24 19.32 24 3 24 C0 4 0 4 0 0 Z " fill="#E43838" transform="translate(190,227)"/>
<path d="M0 0 C18.7138705 -0.32545862 37.32688961 0.89984831 56 2 C56 7.61 56 13.22 56 19 C37.52 19 19.04 19 0 19 C0 12.73 0 6.46 0 0 Z " fill="#FDFCFC" transform="translate(240,231)"/>
<path d="M0 0 C0.02705308 2.41674224 0.04686438 4.8331794 0.0625 7.25 C0.07087891 7.93191406 0.07925781 8.61382812 0.08789062 9.31640625 C0.10481414 12.8026497 -0.1466503 15.58660119 -1 19 C-19.15 19 -37.3 19 -56 19 C-56 13.39 -56 7.78 -56 2 C-49.95361521 1.71156551 -43.90706894 1.42688402 -37.86035156 1.14550781 C-35.80822107 1.04950548 -33.75613623 0.95252142 -31.70410156 0.85449219 C-9.8272867 -0.18928963 -9.8272867 -0.18928963 0 0 Z " fill="#FDFDFD" transform="translate(409,231)"/>
<path d="M0 0 C1.21558594 -0.00773437 2.43117188 -0.01546875 3.68359375 -0.0234375 C10.73709554 -0.00821959 17.2795685 0.51442713 24.125 2.25 C24.74568966 11.93965517 24.74568966 11.93965517 22.4375 16.8125 C19.1979794 20.22712982 16.55598912 21.12177131 11.8828125 21.54052734 C5.41569767 21.62136628 5.41569767 21.62136628 2.20507812 21.62060547 C0.1306806 21.624988 -1.94160193 21.6613752 -4.015625 21.69921875 C-5.98789062 21.70501953 -5.98789062 21.70501953 -8 21.7109375 C-9.19882812 21.71915527 -10.39765625 21.72737305 -11.6328125 21.73583984 C-15.4896509 21.15789493 -17.10722258 19.93738815 -19.875 17.25 C-22.09375524 14.03479779 -22.09163412 11.34863304 -22 7.5 C-21.97292969 6.02273438 -21.97292969 6.02273438 -21.9453125 4.515625 C-21.92210937 3.76796875 -21.89890625 3.0203125 -21.875 2.25 C-14.57307557 -0.04437027 -7.61294072 -0.0481324 0 0 Z " fill="#F77878" transform="translate(323.875,414.75)"/>
<path d="M0 0 C1.35897814 2.03846721 2.71297367 4.08026314 4.0625 6.125 C5.72314264 8.78687958 5.72314264 8.78687958 7 10 C7.07313567 12.53049402 7.09247527 15.03304837 7.0625 17.5625 C7.05798828 18.27341797 7.05347656 18.98433594 7.04882812 19.71679688 C7.03700864 21.47790013 7.01907263 23.23896036 7 25 C-2.19359015 25.1297037 -11.27140339 24.75697589 -20.4375 24.0625 C-21.66404297 23.97548828 -22.89058594 23.88847656 -24.15429688 23.79882812 C-29.49619185 23.40668249 -34.72308913 22.94359284 -40 22 C-40 19.03 -40 16.06 -40 13 C-39.14881592 12.85900879 -38.29763184 12.71801758 -37.4206543 12.57275391 C-34.20927754 12.0403948 -30.9980312 11.50726133 -27.78686523 10.97363281 C-26.40703252 10.74448976 -25.0271511 10.51563984 -23.6472168 10.28710938 C-15.41903914 8.92421471 -7.19971364 7.52618074 1 6 C0.505 3.03 0.505 3.03 0 0 Z " fill="#C6C5C5" transform="translate(293,430)"/>
<path d="M0 0 C1.27855865 -0.00855011 1.27855865 -0.00855011 2.58294678 -0.01727295 C4.39203647 -0.02673986 6.20114353 -0.03326361 8.01025391 -0.03710938 C10.77146858 -0.04678596 13.53192991 -0.07778078 16.29296875 -0.109375 C18.04947474 -0.11590774 19.80598607 -0.12115715 21.5625 -0.125 C22.38663391 -0.1373468 23.21076782 -0.1496936 24.05987549 -0.16241455 C28.72813468 -0.14438852 31.73560758 0.20605777 35.546875 3.203125 C38.34635356 6.93576309 37.546875 9.02104949 37.546875 14.203125 C20.386875 13.873125 3.226875 13.543125 -14.453125 13.203125 C-14.453125 6.203125 -14.453125 6.203125 -12.015625 3.328125 C-11.17 2.626875 -10.324375 1.925625 -9.453125 1.203125 C-7.36870915 -0.88129085 -2.87549473 0.01468403 0 0 Z " fill="#FAF7F7" transform="translate(313.453125,381.796875)"/>
<path d="M0 0 C0.98661621 0.48823242 1.97323242 0.97646484 2.98974609 1.47949219 C7.02477996 3.20100204 10.82008973 3.4032673 15.1640625 3.328125 C16.29671036 3.32531525 16.29671036 3.32531525 17.45223999 3.32244873 C19.03721582 3.3157679 20.62217629 3.30193326 22.20703125 3.28125 C24.62515709 3.24999797 27.04262927 3.24026135 29.4609375 3.234375 C31.0078204 3.2252068 32.55469672 3.21483161 34.1015625 3.203125 C34.81937897 3.19887512 35.53719543 3.19462524 36.27676392 3.19024658 C40.05199597 3.13673061 43.25689428 2.74862114 47 2 C47 6.29 47 10.58 47 15 C41.27083651 15.02478342 35.54170448 15.04289954 29.8125 15.05493164 C27.86490332 15.05994955 25.91731039 15.06676534 23.96972656 15.07543945 C21.16470411 15.08761652 18.35973163 15.09325383 15.5546875 15.09765625 C14.68883026 15.10281754 13.82297302 15.10797882 12.93087769 15.11329651 C12.11048004 15.11337204 11.2900824 15.11344757 10.44482422 15.11352539 C9.37226883 15.11685631 9.37226883 15.11685631 8.27804565 15.12025452 C5.49741629 14.97346938 2.74661482 14.45776914 0 14 C0 9.38 0 4.76 0 0 Z " fill="#A60A0A" transform="translate(300,441)"/>
<path d="M0 0 C0.89267578 0.00322266 1.78535156 0.00644531 2.70507812 0.00976562 C4.09823242 0.02233398 4.09823242 0.02233398 5.51953125 0.03515625 C6.45990234 0.03966797 7.40027344 0.04417969 8.36914062 0.04882812 C10.69016837 0.06060999 13.01106769 0.07706067 15.33203125 0.09765625 C11.58649857 4.0063466 7.61729418 7.35922187 3.33203125 10.66015625 C2.12356312 11.59878481 0.91522745 12.53758393 -0.29296875 13.4765625 C-0.86660156 13.91887207 -1.44023437 14.36118164 -2.03125 14.81689453 C-3.53708622 15.99523833 -5.0105673 17.21462365 -6.48046875 18.4375 C-8.66796875 20.09765625 -8.66796875 20.09765625 -10.66796875 20.09765625 C-10.74890005 17.49286742 -10.80842309 14.89058972 -10.85546875 12.28515625 C-10.89317383 11.17817383 -10.89317383 11.17817383 -10.93164062 10.04882812 C-11.0056778 4.59475601 -11.0056778 4.59475601 -9.34375 2.1484375 C-6.22776647 0.19459235 -3.5743329 -0.02276645 0 0 Z " fill="#079CFD" transform="translate(207.66796875,284.90234375)"/>
<path d="M0 0 C3.96 0 7.92 0 12 0 C12.02705308 2.41674224 12.04686438 4.8331794 12.0625 7.25 C12.07087891 7.93191406 12.07925781 8.61382812 12.08789062 9.31640625 C12.10481414 12.8026497 11.8533497 15.58660119 11 19 C5.06 19 -0.88 19 -7 19 C-6.113125 17.68 -5.22625 16.36 -4.3125 15 C-1.45568512 10.71817057 1.30109275 6.38273876 4 2 C2.68 1.34 1.36 0.68 0 0 Z " fill="#E4DEDE" transform="translate(397,231)"/>
<path d="M0 0 C1.20366211 0.00483398 1.20366211 0.00483398 2.43164062 0.00976562 C3.68170898 0.02233398 3.68170898 0.02233398 4.95703125 0.03515625 C6.22450195 0.04192383 6.22450195 0.04192383 7.51757812 0.04882812 C9.6015928 0.06060222 11.68557102 0.07853735 13.76953125 0.09765625 C9.66897504 4.3750992 5.24490289 8.11875756 0.64453125 11.84765625 C-0.42861328 12.73130859 -0.42861328 12.73130859 -1.5234375 13.6328125 C-2.21308594 14.19355469 -2.90273438 14.75429688 -3.61328125 15.33203125 C-4.23605957 15.83959961 -4.85883789 16.34716797 -5.50048828 16.87011719 C-7.23046875 18.09765625 -7.23046875 18.09765625 -10.23046875 19.09765625 C-10.31144105 16.6594904 -10.37093847 14.22401241 -10.41796875 11.78515625 C-10.44310547 11.09486328 -10.46824219 10.40457031 -10.49414062 9.69335938 C-10.56814952 4.58674551 -10.56814952 4.58674551 -8.90625 2.1796875 C-5.95413705 0.27354464 -3.41357191 -0.02420973 0 0 Z " fill="#EA3A3A" transform="translate(387.23046875,284.90234375)"/>
<path d="M0 0 C0 2.97 0 5.94 0 9 C-4.12581337 8.5488098 -8.25046632 8.08773086 -12.375 7.625 C-13.53128906 7.49867188 -14.68757813 7.37234375 -15.87890625 7.2421875 C-31.29204093 5.50059036 -31.29204093 5.50059036 -36 4 C-36.33 3.34 -36.66 2.68 -37 2 C-32.37362971 1.7136129 -27.74716474 1.42882554 -23.12060547 1.14550781 C-21.54733634 1.04894052 -19.97409378 0.95193929 -18.40087891 0.85449219 C-16.13711312 0.7143475 -13.87325577 0.57577333 -11.609375 0.4375 C-10.90818542 0.39375244 -10.20699585 0.35000488 -9.48455811 0.30493164 C-6.31217018 0.11257774 -3.1803649 0 0 0 Z " fill="#A70C0C" transform="translate(253,443)"/>
<path d="M0 0 C2.93427465 0.23165326 4.56526011 0.62522423 6.8125 2.5625 C8.55632063 6.1419213 8.19791008 9.04179842 8 13 C6.35 13.33 4.7 13.66 3 14 C-0.00752661 10.99247339 -1.28978344 8.96013667 -1.3125 4.75 C-1 1 -1 1 0 0 Z " fill="#0E0000" transform="translate(332,350)"/>
<path d="M0 0 C3.53571429 0.53571429 3.53571429 0.53571429 5 2 C4.984375 3.9609375 4.984375 3.9609375 4.75 6.375 C4.68296875 7.16648437 4.6159375 7.95796875 4.546875 8.7734375 C3.89507763 11.42718394 3.22006409 12.42151407 1 14 C-0.32 14 -1.64 14 -3 14 C-3.92053993 9.30524633 -4.31904262 6.27192062 -2 2 C-1.34 1.34 -0.68 0.68 0 0 Z " fill="#0A0000" transform="translate(314,350)"/>
<path d="M0 0 C1 4 1 4 -1 19 C-16.84 19 -32.68 19 -49 19 C-49 18.67 -49 18.34 -49 18 C-34.48 18 -19.96 18 -5 18 C-3.68 12.72 -2.36 7.44 -1 2 C-0.67 1.34 -0.34 0.68 0 0 Z " fill="#790000" transform="translate(457,232)"/>
<path d="M0 0 C1.38226016 2.76452033 1.09525387 5.0461363 1.0625 8.125 C1.05347656 9.22070312 1.04445312 10.31640625 1.03515625 11.4453125 C1.02355469 12.28835937 1.01195312 13.13140625 1 14 C-9.00976758 13.43657596 -19.00717773 12.8168046 -29 12 C-29 11.67 -29 11.34 -29 11 C-19.60394198 10.89268462 -10.35912329 11.00736571 -1 12 C-1.01160156 11.21753906 -1.02320313 10.43507812 -1.03515625 9.62890625 C-1.04417969 8.61699219 -1.05320313 7.60507813 -1.0625 6.5625 C-1.07410156 5.55316406 -1.08570313 4.54382813 -1.09765625 3.50390625 C-1 1 -1 1 0 0 Z " fill="#AB8C35" transform="translate(231,173)"/>
<path d="M0 0 C1.05994631 3.34594992 0.97506299 6.085523 0.625 9.5625 C0.53476562 10.51253906 0.44453125 11.46257812 0.3515625 12.44140625 C0 15 0 15 -1 18 C-2.32 18 -3.64 18 -5 18 C-4.35702496 15.37426939 -3.71075589 12.74942697 -3.0625 10.125 C-2.88009766 9.37863281 -2.69769531 8.63226563 -2.50976562 7.86328125 C-1.11328125 2.2265625 -1.11328125 2.2265625 0 0 Z " fill="#A30808" transform="translate(457,232)"/>
<path d="M0 0 C0.99 0.33 1.98 0.66 3 1 C2.34 9.58 1.68 18.16 1 27 C0.67 27 0.34 27 0 27 C0 18.09 0 9.18 0 0 Z " fill="#D63535" transform="translate(348,347)"/>
<path d="M0 0 C2.31 0 4.62 0 7 0 C7 0.66 7 1.32 7 2 C9.64 2.33 12.28 2.66 15 3 C11.64783266 4.10176129 9.24878922 3.89303058 5.8125 3.1875 C4.93207031 3.01605469 4.05164063 2.84460938 3.14453125 2.66796875 C2.43683594 2.44753906 1.72914063 2.22710937 1 2 C0.67 1.34 0.34 0.68 0 0 Z " fill="#8B0808" transform="translate(216,445)"/>
</svg>
